<svg width="16" height="16" viewBox="0 0 16 16" fill="none" xmlns="http://www.w3.org/2000/svg">
<path fill-rule="evenodd" clip-rule="evenodd" d="M10.7937 15.5V9.69125H12.7437L13.0355 7.42775H10.793V5.9825C10.793 5.327 10.9752 4.88 11.9157 4.88H13.1142V2.855C12.5338 2.79323 11.9505 2.76319 11.3667 2.765C9.63875 2.765 8.456 3.82025 8.456 5.7575V7.42775H6.5V9.69125H8.45525V15.5H1.328C0.8705 15.5 0.5 15.1295 0.5 14.672V1.328C0.5 0.8705 0.8705 0.5 1.328 0.5H14.672C15.1295 0.5 15.5 0.8705 15.5 1.328V14.672C15.5 15.1295 15.1295 15.5 14.672 15.5H10.7937Z" fill="#AB8750"/>
</svg>
