<svg width="242" height="70" viewBox="0 0 242 70" fill="none" xmlns="http://www.w3.org/2000/svg">
<path d="M21 57.7182L27.3173 41.2818H30.8707L37.188 57.7182H33.8319L32.45 53.9144H25.7133L24.3067 57.7182H21ZM26.577 51.5663H31.5863L29.0693 44.7334L26.577 51.5663Z" fill="#FFB23F"/>
<path d="M36.5753 57.7182L42.8925 41.2818H46.446L52.7632 57.7182H49.4072L48.0253 53.9144H41.2885L39.882 57.7182H36.5753ZM42.1522 51.5663H47.1616L44.6446 44.7334L42.1522 51.5663Z" fill="#FFB23F"/>
<path d="M52.1506 57.7182L58.4678 41.2818H62.0213L68.3385 57.7182H64.9825L63.6006 53.9144H56.8638L55.4573 57.7182H52.1506ZM57.7275 51.5663H62.7369L60.2199 44.7334L57.7275 51.5663Z" fill="#FFB23F"/>
<path d="M81.3634 58C79.669 58 78.2048 57.6478 76.971 56.9434C75.7536 56.2233 74.8076 55.2293 74.1331 53.9613C73.4586 52.6777 73.1214 51.1906 73.1214 49.5C73.1214 47.825 73.4586 46.3536 74.1331 45.0856C74.8076 43.802 75.7536 42.8002 76.971 42.0801C78.2048 41.36 79.669 41 81.3634 41C83.3376 41 84.9416 41.454 86.1754 42.3619C87.4257 43.2541 88.2236 44.5064 88.569 46.1188H86.2741C86.0109 45.1013 85.468 44.2873 84.6454 43.6768C83.8393 43.0506 82.7453 42.7376 81.3634 42.7376C80.1296 42.7376 79.052 43.0115 78.1308 43.5594C77.2095 44.0916 76.4939 44.8665 75.9839 45.884C75.4904 46.8858 75.2436 48.0912 75.2436 49.5C75.2436 50.9088 75.4904 52.122 75.9839 53.1395C76.4939 54.1413 77.2095 54.9162 78.1308 55.4641C79.052 55.9963 80.1296 56.2624 81.3634 56.2624C82.7453 56.2624 83.8393 55.965 84.6454 55.3702C85.468 54.7597 86.0109 53.9535 86.2741 52.9517H88.569C88.2236 54.5327 87.4257 55.7693 86.1754 56.6616C84.9416 57.5539 83.3376 58 81.3634 58Z" fill="#FFB23F"/>
<path d="M97.668 58C95.9735 58 94.4847 57.6478 93.2015 56.9434C91.9348 56.2233 90.9395 55.2215 90.2156 53.9378C89.5082 52.6542 89.1545 51.175 89.1545 49.5C89.1545 47.825 89.5082 46.3536 90.2156 45.0856C90.9395 43.802 91.9348 42.8002 93.2015 42.0801C94.4847 41.36 95.9735 41 97.668 41C99.3789 41 100.868 41.36 102.135 42.0801C103.418 42.8002 104.413 43.802 105.12 45.0856C105.828 46.3536 106.182 47.825 106.182 49.5C106.182 51.175 105.828 52.6542 105.12 53.9378C104.413 55.2215 103.418 56.2233 102.135 56.9434C100.868 57.6478 99.3789 58 97.668 58ZM97.668 56.2624C98.9348 56.2624 100.045 55.9963 100.999 55.4641C101.97 54.9162 102.719 54.1413 103.245 53.1395C103.788 52.122 104.059 50.9088 104.059 49.5C104.059 48.0912 103.788 46.8858 103.245 45.884C102.719 44.8821 101.97 44.1151 100.999 43.5829C100.045 43.035 98.9348 42.761 97.668 42.761C96.4013 42.761 95.2826 43.035 94.312 43.5829C93.3578 44.1151 92.6093 44.8821 92.0664 45.884C91.54 46.8858 91.2767 48.0912 91.2767 49.5C91.2767 50.9088 91.54 52.122 92.0664 53.1395C92.6093 54.1413 93.3578 54.9162 94.312 55.4641C95.2826 55.9963 96.4013 56.2624 97.668 56.2624Z" fill="#FFB23F"/>
<path d="M107.444 57.7182V41.2818H109.517L118.722 54.4544V41.2818H120.795V57.7182H118.722L109.517 44.5456V57.7182H107.444Z" fill="#FFB23F"/>
<path d="M128.233 58C126.967 58 125.865 57.7808 124.927 57.3425C123.989 56.9042 123.265 56.2937 122.755 55.5111C122.245 54.7284 121.99 53.8204 121.99 52.7873H124.162C124.162 53.4291 124.318 54.0239 124.631 54.5718C124.943 55.1041 125.396 55.5345 125.988 55.8633C126.597 56.1763 127.345 56.3329 128.233 56.3329C129.402 56.3329 130.306 56.0668 130.948 55.5345C131.59 55.0023 131.91 54.337 131.91 53.5387C131.91 52.8812 131.762 52.3568 131.466 51.9655C131.17 51.5585 130.767 51.2297 130.257 50.9793C129.763 50.7288 129.188 50.5097 128.53 50.3218C127.888 50.134 127.214 49.9227 126.506 49.6878C125.174 49.2495 124.186 48.7095 123.545 48.0677C122.903 47.4102 122.582 46.5571 122.582 45.5083C122.566 44.6317 122.78 43.8568 123.224 43.1837C123.668 42.4949 124.293 41.9627 125.1 41.587C125.922 41.1957 126.893 41 128.011 41C129.114 41 130.068 41.1957 130.874 41.587C131.696 41.9784 132.33 42.5184 132.774 43.2072C133.235 43.8959 133.473 44.6786 133.49 45.5552H131.318C131.318 45.1013 131.195 44.6552 130.948 44.2169C130.701 43.7629 130.323 43.395 129.813 43.1133C129.319 42.8315 128.694 42.6906 127.937 42.6906C127 42.675 126.226 42.9019 125.618 43.3715C125.025 43.8412 124.729 44.4908 124.729 45.3204C124.729 46.0249 124.935 46.5649 125.346 46.9406C125.774 47.3163 126.366 47.6294 127.123 47.8798C127.88 48.1146 128.752 48.3886 129.739 48.7017C130.561 48.9834 131.302 49.3122 131.96 49.6878C132.618 50.0635 133.128 50.5488 133.49 51.1436C133.868 51.7385 134.057 52.4977 134.057 53.4213C134.057 54.204 133.843 54.9475 133.416 55.6519C132.988 56.3407 132.338 56.9042 131.466 57.3425C130.611 57.7808 129.533 58 128.233 58Z" fill="#FFB23F"/>
<path d="M141.513 58C140.328 58 139.251 57.7808 138.28 57.3425C137.326 56.8886 136.561 56.192 135.985 55.2528C135.409 54.3135 135.121 53.116 135.121 51.6602V41.2818H137.194V51.6837C137.194 53.2804 137.597 54.4388 138.403 55.1588C139.209 55.8789 140.262 56.239 141.562 56.239C142.862 56.239 143.906 55.8789 144.696 55.1588C145.486 54.4388 145.88 53.2804 145.88 51.6837V41.2818H147.953V51.6602C147.953 53.116 147.665 54.3135 147.09 55.2528C146.514 56.192 145.741 56.8886 144.77 57.3425C143.799 57.7808 142.714 58 141.513 58Z" fill="#FFB23F"/>
<path d="M149.736 57.7182V41.2818H151.809V56.145H159.854V57.7182H149.736Z" fill="#FFB23F"/>
<path d="M162.274 57.7182V42.9019H157.116V41.2818H169.504V42.9019H164.346V57.7182H162.274Z" fill="#FFB23F"/>
<path d="M170.308 57.7182V41.2818H172.38V57.7182H170.308Z" fill="#FFB23F"/>
<path d="M174.316 57.7182V41.2818H176.388L185.593 54.4544V41.2818H187.666V57.7182H185.593L176.388 44.5456V57.7182H174.316Z" fill="#FFB23F"/>
<path d="M197.029 58C195.417 58 194.002 57.6478 192.785 56.9434C191.568 56.2233 190.622 55.2293 189.947 53.9613C189.273 52.6777 188.935 51.1984 188.935 49.5235C188.935 47.8485 189.273 46.3692 189.947 45.0856C190.638 43.802 191.609 42.8002 192.859 42.0801C194.126 41.36 195.615 41 197.326 41C199.267 41 200.879 41.4461 202.162 42.3384C203.462 43.2307 204.301 44.4595 204.679 46.0249H202.286C202.055 45.0387 201.504 44.256 200.632 43.6768C199.777 43.0976 198.675 42.808 197.326 42.808C196.059 42.808 194.957 43.082 194.019 43.6298C193.081 44.1621 192.349 44.9291 191.823 45.9309C191.313 46.9328 191.058 48.1303 191.058 49.5235C191.058 50.9167 191.313 52.1142 191.823 53.116C192.333 54.1179 193.04 54.8927 193.945 55.4406C194.85 55.9728 195.902 56.239 197.103 56.239C198.946 56.239 200.336 55.7302 201.274 54.7127C202.212 53.6796 202.746 52.2707 202.878 50.4862H197.893V48.9365H205V57.7182H203.1L202.927 55.018C202.302 55.9728 201.537 56.7086 200.632 57.2251C199.727 57.7417 198.526 58 197.029 58Z" fill="#FFB23F"/>
<rect x="1" y="29" width="224" height="40" stroke="#FFB23F" stroke-width="2"/>
<rect x="235" y="42" width="7" height="7" fill="#FFB23F"/>
<rect x="212" y="4" width="7" height="7" fill="#FFB23F"/>
<rect x="219" width="4" height="4" fill="#FFB23F"/>
<path d="M220 33H210V24H230V44H221V34V33H220Z" stroke="#FFB23F" stroke-width="2"/>
<path fill-rule="evenodd" clip-rule="evenodd" d="M226 28H204V35H219V50H226V28Z" fill="#FFB23F"/>
<path fill-rule="evenodd" clip-rule="evenodd" d="M242 12H220V19H235V34H242V12Z" fill="#FFB23F"/>
</svg>
