<svg width="1097" height="251" viewBox="0 0 1097 251" fill="none" xmlns="http://www.w3.org/2000/svg">
<path d="M23.6525 30.1945H31.6476L11.8421 10.3889H3.84692L23.6525 30.1945Z" fill="#8F8576"/>
<path d="M15.9497 10.3889L35.0419 29.4811V10.3889H29.8752V16.4167L23.8474 10.3889L15.9497 10.3889Z" fill="#8F8576"/>
<path d="M0.5 11.052V30.1945H5.66667V24.1667L11.6944 30.1945H19.6425L0.5 11.052Z" fill="#8F8576"/>
<path d="M47.5098 27.2164H52.1391V29.9444H43.9758V15.4365H47.5098V27.2164Z" fill="#8F8576"/>
<path d="M58.4542 30.1098C57.3244 30.1098 56.3048 29.8687 55.3955 29.3864C54.4999 28.9042 53.7904 28.2153 53.2668 27.3198C52.7571 26.4242 52.5022 25.3771 52.5022 24.1784C52.5022 22.9936 52.7639 21.9533 53.2875 21.0578C53.8111 20.1484 54.5275 19.4527 55.4368 18.9705C56.3462 18.4882 57.3657 18.2471 58.4955 18.2471C59.6253 18.2471 60.6448 18.4882 61.5542 18.9705C62.4635 19.4527 63.1799 20.1484 63.7035 21.0578C64.2271 21.9533 64.4888 22.9936 64.4888 24.1784C64.4888 25.3633 64.2202 26.4104 63.6828 27.3198C63.1593 28.2153 62.4359 28.9042 61.5128 29.3864C60.6035 29.8687 59.5839 30.1098 58.4542 30.1098ZM58.4542 27.0511C59.1293 27.0511 59.7011 26.8031 60.1695 26.3071C60.6517 25.8111 60.8928 25.1016 60.8928 24.1784C60.8928 23.2553 60.6586 22.5458 60.1902 22.0498C59.7355 21.5538 59.1706 21.3058 58.4955 21.3058C57.8066 21.3058 57.2348 21.5538 56.7802 22.0498C56.3255 22.532 56.0982 23.2416 56.0982 24.1784C56.0982 25.1016 56.3186 25.8111 56.7595 26.3071C57.2142 26.8031 57.7791 27.0511 58.4542 27.0511Z" fill="#8F8576"/>
<path d="M70.125 18.2471C70.9379 18.2471 71.6475 18.4125 72.2537 18.7431C72.8737 19.0738 73.349 19.5078 73.6797 20.0451V18.4125H77.2137V29.9238C77.2137 30.9847 77.0001 31.9422 76.573 32.7964C76.1597 33.6644 75.519 34.3533 74.651 34.8631C73.7968 35.3729 72.729 35.6278 71.4477 35.6278C69.7392 35.6278 68.3546 35.2213 67.2937 34.4084C66.2328 33.6093 65.6266 32.5209 65.475 31.1431H68.9677C69.0779 31.584 69.3397 31.9284 69.753 32.1764C70.1664 32.4382 70.6761 32.5691 71.2824 32.5691C72.0126 32.5691 72.5912 32.3556 73.0184 31.9284C73.4592 31.5151 73.6797 30.8469 73.6797 29.9238V28.2911C73.3352 28.8284 72.8599 29.2693 72.2537 29.6138C71.6475 29.9444 70.9379 30.1098 70.125 30.1098C69.1744 30.1098 68.3132 29.8687 67.5417 29.3864C66.7701 28.8904 66.157 28.1947 65.7024 27.2991C65.2615 26.3898 65.041 25.3427 65.041 24.1578C65.041 22.9729 65.2615 21.9327 65.7024 21.0371C66.157 20.1416 66.7701 19.4527 67.5417 18.9705C68.3132 18.4882 69.1744 18.2471 70.125 18.2471ZM73.6797 24.1784C73.6797 23.2967 73.4317 22.6009 72.9357 22.0911C72.4535 21.5813 71.861 21.3264 71.1584 21.3264C70.4557 21.3264 69.8564 21.5813 69.3604 22.0911C68.8781 22.5871 68.637 23.276 68.637 24.1578C68.637 25.0396 68.8781 25.7422 69.3604 26.2658C69.8564 26.7756 70.4557 27.0304 71.1584 27.0304C71.861 27.0304 72.4535 26.7756 72.9357 26.2658C73.4317 25.756 73.6797 25.0602 73.6797 24.1784Z" fill="#8F8576"/>
<path d="M84.3995 30.1098C83.2697 30.1098 82.2502 29.8687 81.3408 29.3864C80.4453 28.9042 79.7357 28.2153 79.2122 27.3198C78.7024 26.4242 78.4475 25.3771 78.4475 24.1784C78.4475 22.9936 78.7093 21.9533 79.2328 21.0578C79.7564 20.1484 80.4728 19.4527 81.3822 18.9705C82.2915 18.4882 83.3111 18.2471 84.4408 18.2471C85.5706 18.2471 86.5902 18.4882 87.4995 18.9705C88.4088 19.4527 89.1253 20.1484 89.6488 21.0578C90.1724 21.9533 90.4342 22.9936 90.4342 24.1784C90.4342 25.3633 90.1655 26.4104 89.6282 27.3198C89.1046 28.2153 88.3813 28.9042 87.4582 29.3864C86.5488 29.8687 85.5293 30.1098 84.3995 30.1098ZM84.3995 27.0511C85.0746 27.0511 85.6464 26.8031 86.1148 26.3071C86.5971 25.8111 86.8382 25.1016 86.8382 24.1784C86.8382 23.2553 86.604 22.5458 86.1355 22.0498C85.6808 21.5538 85.116 21.3058 84.4408 21.3058C83.752 21.3058 83.1802 21.5538 82.7255 22.0498C82.2708 22.532 82.0435 23.2416 82.0435 24.1784C82.0435 25.1016 82.264 25.8111 82.7048 26.3071C83.1595 26.8031 83.7244 27.0511 84.3995 27.0511Z" fill="#8F8576"/>
<path d="M93.4664 17.2138C92.8464 17.2138 92.3366 17.0347 91.937 16.6764C91.5513 16.3044 91.3584 15.8498 91.3584 15.3124C91.3584 14.7613 91.5513 14.3067 91.937 13.9484C92.3366 13.5764 92.8464 13.3904 93.4664 13.3904C94.0726 13.3904 94.5686 13.5764 94.9544 13.9484C95.3539 14.3067 95.5537 14.7613 95.5537 15.3124C95.5537 15.8498 95.3539 16.3044 94.9544 16.6764C94.5686 17.0347 94.0726 17.2138 93.4664 17.2138ZM95.223 18.4124V29.9444H91.689V18.4124H95.223Z" fill="#8F8576"/>
<path d="M100.698 20.0451C101.043 19.5078 101.518 19.0738 102.124 18.7431C102.73 18.4125 103.44 18.2471 104.253 18.2471C105.204 18.2471 106.065 18.4882 106.836 18.9705C107.608 19.4527 108.214 20.1416 108.655 21.0371C109.11 21.9327 109.337 22.9729 109.337 24.1578C109.337 25.3427 109.11 26.3898 108.655 27.2991C108.214 28.1947 107.608 28.8904 106.836 29.3864C106.065 29.8687 105.204 30.1098 104.253 30.1098C103.454 30.1098 102.744 29.9444 102.124 29.6138C101.518 29.2831 101.043 28.856 100.698 28.3324V35.4418H97.1643V18.4125H100.698V20.0451ZM105.741 24.1578C105.741 23.276 105.493 22.5871 104.997 22.0911C104.515 21.5813 103.915 21.3264 103.199 21.3264C102.496 21.3264 101.897 21.5813 101.401 22.0911C100.919 22.6009 100.678 23.2967 100.678 24.1784C100.678 25.0602 100.919 25.756 101.401 26.2658C101.897 26.7756 102.496 27.0304 103.199 27.0304C103.902 27.0304 104.501 26.7756 104.997 26.2658C105.493 25.7422 105.741 25.0396 105.741 24.1578Z" fill="#8F8576"/>
<path d="M115.262 30.1098C114.256 30.1098 113.361 29.9376 112.576 29.5931C111.79 29.2487 111.17 28.7802 110.716 28.1878C110.261 27.5816 110.006 26.9064 109.951 26.1624H113.444C113.485 26.562 113.671 26.8858 114.002 27.1338C114.332 27.3818 114.739 27.5058 115.221 27.5058C115.662 27.5058 115.999 27.4231 116.234 27.2578C116.482 27.0787 116.606 26.8513 116.606 26.5758C116.606 26.2451 116.433 26.004 116.089 25.8524C115.744 25.6871 115.186 25.508 114.415 25.3151C113.588 25.1222 112.899 24.9224 112.348 24.7158C111.797 24.4953 111.322 24.1578 110.922 23.7031C110.523 23.2347 110.323 22.6078 110.323 21.8224C110.323 21.1611 110.502 20.5618 110.86 20.0244C111.232 19.4734 111.77 19.0394 112.472 18.7225C113.189 18.4056 114.036 18.2471 115.014 18.2471C116.461 18.2471 117.598 18.6054 118.424 19.3218C119.265 20.0382 119.747 20.9889 119.871 22.1738H116.606C116.55 21.7742 116.371 21.4573 116.068 21.2231C115.779 20.9889 115.393 20.8718 114.911 20.8718C114.498 20.8718 114.181 20.9544 113.96 21.1198C113.74 21.2713 113.63 21.4849 113.63 21.7604C113.63 22.0911 113.802 22.3391 114.146 22.5044C114.504 22.6698 115.056 22.8351 115.8 23.0004C116.654 23.2209 117.35 23.4413 117.887 23.6618C118.424 23.8684 118.893 24.2129 119.292 24.6951C119.706 25.1636 119.919 25.7973 119.933 26.5964C119.933 27.2716 119.74 27.8778 119.354 28.4151C118.982 28.9387 118.438 29.352 117.722 29.6551C117.019 29.9582 116.199 30.1098 115.262 30.1098Z" fill="#8F8576"/>
<path d="M132.862 18.4125V29.9444H129.328V28.3738C128.97 28.8836 128.481 29.2969 127.861 29.6138C127.255 29.9169 126.58 30.0684 125.836 30.0684C124.954 30.0684 124.175 29.8756 123.5 29.4898C122.825 29.0902 122.302 28.5184 121.93 27.7744C121.558 27.0304 121.372 26.1556 121.372 25.1498V18.4125H124.885V24.6744C124.885 25.446 125.085 26.0453 125.484 26.4724C125.884 26.8996 126.421 27.1131 127.096 27.1131C127.785 27.1131 128.329 26.8996 128.729 26.4724C129.129 26.0453 129.328 25.446 129.328 24.6744V18.4125H132.862Z" fill="#8F8576"/>
<path d="M149.495 18.2885C150.928 18.2885 152.065 18.7225 152.905 19.5904C153.76 20.4584 154.187 21.664 154.187 23.2071V29.9444H150.673V23.6824C150.673 22.9384 150.474 22.3667 150.074 21.9671C149.688 21.5538 149.151 21.3471 148.462 21.3471C147.773 21.3471 147.229 21.5538 146.829 21.9671C146.444 22.3667 146.251 22.9384 146.251 23.6824V29.9444H142.737V23.6824C142.737 22.9384 142.538 22.3667 142.138 21.9671C141.752 21.5538 141.215 21.3471 140.526 21.3471C139.837 21.3471 139.293 21.5538 138.893 21.9671C138.508 22.3667 138.315 22.9384 138.315 23.6824V29.9444H134.781V18.4125H138.315V19.8591C138.673 19.3769 139.141 18.998 139.72 18.7225C140.299 18.4331 140.953 18.2885 141.683 18.2885C142.551 18.2885 143.323 18.4745 143.998 18.8465C144.687 19.2185 145.224 19.7489 145.61 20.4378C146.01 19.804 146.554 19.2873 147.243 18.8878C147.932 18.4882 148.683 18.2885 149.495 18.2885Z" fill="#8F8576"/>
<path d="M264.947 32.468C261.961 35.4542 256.903 35.4423 255.491 31.4624C255.214 30.6832 254.993 29.882 254.831 29.0645C254.167 25.7265 254.507 22.2667 255.81 19.1224C257.112 15.9782 259.318 13.2908 262.148 11.4C264.977 9.5092 268.304 8.5 271.708 8.5C275.111 8.5 278.438 9.5092 281.267 11.4C284.097 13.2908 286.303 15.9782 287.605 19.1225C288.907 22.2667 289.248 25.7265 288.584 29.0645C288.422 29.882 288.201 30.6832 287.924 31.4624C286.512 35.4423 281.454 35.4542 278.468 32.468L273.858 27.8584C273.418 27.418 273.463 26.6917 273.585 26.0809C273.659 25.7096 273.621 25.3247 273.476 24.9749C273.331 24.6251 273.086 24.3261 272.771 24.1158C272.456 23.9055 272.086 23.7932 271.708 23.7932C271.329 23.7932 270.959 23.9055 270.644 24.1158C270.329 24.3261 270.084 24.6251 269.939 24.9749C269.794 25.3247 269.756 25.7096 269.83 26.0809C269.951 26.6917 269.997 27.418 269.557 27.8584L264.947 32.468Z" fill="#8F8576"/>
<path d="M302.915 28.3367H307.54V31.0624H299.384V16.5668H302.915V28.3367Z" fill="#8F8576"/>
<path d="M313.849 31.2276C312.721 31.2276 311.702 30.9867 310.793 30.5049C309.899 30.0231 309.19 29.3348 308.667 28.44C308.157 27.5452 307.903 26.499 307.903 25.3013C307.903 24.1175 308.164 23.0781 308.687 22.1833C309.21 21.2748 309.926 20.5796 310.835 20.0978C311.743 19.616 312.762 19.3751 313.891 19.3751C315.02 19.3751 316.038 19.616 316.947 20.0978C317.855 20.5796 318.571 21.2748 319.094 22.1833C319.617 23.0781 319.879 24.1175 319.879 25.3013C319.879 26.4852 319.61 27.5314 319.074 28.44C318.551 29.3348 317.828 30.0231 316.905 30.5049C315.997 30.9867 314.978 31.2276 313.849 31.2276ZM313.849 28.1715C314.524 28.1715 315.095 27.9238 315.563 27.4282C316.045 26.9326 316.286 26.2237 316.286 25.3013C316.286 24.379 316.052 23.6701 315.584 23.1745C315.13 22.6789 314.565 22.4311 313.891 22.4311C313.202 22.4311 312.631 22.6789 312.177 23.1745C311.723 23.6563 311.495 24.3652 311.495 25.3013C311.495 26.2237 311.716 26.9326 312.156 27.4282C312.611 27.9238 313.175 28.1715 313.849 28.1715Z" fill="#8F8576"/>
<path d="M325.51 19.3751C326.322 19.3751 327.031 19.5403 327.637 19.8707C328.257 20.201 328.732 20.6347 329.062 21.1715V19.5403H332.593V31.0417C332.593 32.1017 332.38 33.0585 331.953 33.9119C331.54 34.7792 330.9 35.4675 330.032 35.9768C329.179 36.4862 328.112 36.7409 326.832 36.7409C325.125 36.7409 323.741 36.3348 322.681 35.5226C321.621 34.7241 321.016 33.6366 320.864 32.26H324.354C324.464 32.7005 324.726 33.0447 325.139 33.2925C325.552 33.554 326.061 33.6848 326.667 33.6848C327.396 33.6848 327.974 33.4714 328.401 33.0447C328.842 32.6317 329.062 31.9641 329.062 31.0417V29.4105C328.718 29.9473 328.243 30.3879 327.637 30.732C327.031 31.0624 326.322 31.2276 325.51 31.2276C324.56 31.2276 323.7 30.9867 322.929 30.5049C322.158 30.0093 321.546 29.3141 321.091 28.4193C320.651 27.5108 320.431 26.4646 320.431 25.2807C320.431 24.0968 320.651 23.0575 321.091 22.1627C321.546 21.2679 322.158 20.5796 322.929 20.0978C323.7 19.616 324.56 19.3751 325.51 19.3751ZM329.062 25.3013C329.062 24.4203 328.814 23.7251 328.319 23.2158C327.837 22.7065 327.245 22.4518 326.543 22.4518C325.841 22.4518 325.242 22.7065 324.746 23.2158C324.264 23.7114 324.024 24.3997 324.024 25.2807C324.024 26.1617 324.264 26.8638 324.746 27.3869C325.242 27.8962 325.841 28.1509 326.543 28.1509C327.245 28.1509 327.837 27.8962 328.319 27.3869C328.814 26.8775 329.062 26.1824 329.062 25.3013Z" fill="#8F8576"/>
<path d="M339.773 31.2276C338.644 31.2276 337.625 30.9867 336.717 30.5049C335.822 30.0231 335.113 29.3348 334.59 28.44C334.08 27.5452 333.826 26.499 333.826 25.3013C333.826 24.1175 334.087 23.0781 334.61 22.1833C335.133 21.2748 335.849 20.5796 336.758 20.0978C337.666 19.616 338.685 19.3751 339.814 19.3751C340.943 19.3751 341.961 19.616 342.87 20.0978C343.778 20.5796 344.494 21.2748 345.017 22.1833C345.54 23.0781 345.802 24.1175 345.802 25.3013C345.802 26.4852 345.534 27.5314 344.997 28.44C344.474 29.3348 343.751 30.0231 342.829 30.5049C341.92 30.9867 340.901 31.2276 339.773 31.2276ZM339.773 28.1715C340.447 28.1715 341.018 27.9238 341.486 27.4282C341.968 26.9326 342.209 26.2237 342.209 25.3013C342.209 24.379 341.975 23.6701 341.507 23.1745C341.053 22.6789 340.488 22.4311 339.814 22.4311C339.126 22.4311 338.554 22.6789 338.1 23.1745C337.646 23.6563 337.419 24.3652 337.419 25.3013C337.419 26.2237 337.639 26.9326 338.079 27.4282C338.534 27.9238 339.098 28.1715 339.773 28.1715Z" fill="#8F8576"/>
<path d="M348.832 18.3426C348.212 18.3426 347.703 18.1637 347.304 17.8058C346.918 17.4341 346.726 16.9798 346.726 16.4429C346.726 15.8923 346.918 15.438 347.304 15.0801C347.703 14.7084 348.212 14.5226 348.832 14.5226C349.437 14.5226 349.933 14.7084 350.318 15.0801C350.718 15.438 350.917 15.8923 350.917 16.4429C350.917 16.9798 350.718 17.4341 350.318 17.8058C349.933 18.1637 349.437 18.3426 348.832 18.3426ZM350.587 19.5403V31.0624H347.056V19.5403H350.587Z" fill="#8F8576"/>
<path d="M356.057 21.1715C356.401 20.6347 356.876 20.201 357.482 19.8707C358.088 19.5403 358.797 19.3751 359.609 19.3751C360.559 19.3751 361.419 19.616 362.19 20.0978C362.961 20.5796 363.567 21.2679 364.007 22.1627C364.461 23.0575 364.689 24.0968 364.689 25.2807C364.689 26.4646 364.461 27.5108 364.007 28.4193C363.567 29.3141 362.961 30.0093 362.19 30.5049C361.419 30.9867 360.559 31.2276 359.609 31.2276C358.81 31.2276 358.102 31.0624 357.482 30.732C356.876 30.4016 356.401 29.9749 356.057 29.4518V36.555H352.526V19.5403H356.057V21.1715ZM361.096 25.2807C361.096 24.3997 360.848 23.7114 360.352 23.2158C359.87 22.7065 359.272 22.4518 358.556 22.4518C357.854 22.4518 357.255 22.7065 356.759 23.2158C356.278 23.7251 356.037 24.4203 356.037 25.3013C356.037 26.1824 356.278 26.8775 356.759 27.3869C357.255 27.8962 357.854 28.1509 358.556 28.1509C359.258 28.1509 359.857 27.8962 360.352 27.3869C360.848 26.8638 361.096 26.1617 361.096 25.2807Z" fill="#8F8576"/>
<path d="M370.609 31.2276C369.604 31.2276 368.709 31.0555 367.924 30.7114C367.14 30.3672 366.52 29.8992 366.066 29.3072C365.612 28.7015 365.357 28.027 365.302 27.2836H368.792C368.833 27.6828 369.019 28.0063 369.349 28.2541C369.68 28.5019 370.086 28.6258 370.568 28.6258C371.008 28.6258 371.345 28.5432 371.579 28.378C371.827 28.1991 371.951 27.9719 371.951 27.6966C371.951 27.3662 371.779 27.1253 371.435 26.9739C371.091 26.8087 370.533 26.6298 369.762 26.437C368.936 26.2443 368.248 26.0447 367.697 25.8382C367.147 25.618 366.672 25.2807 366.273 24.8264C365.873 24.3584 365.674 23.732 365.674 22.9474C365.674 22.2866 365.853 21.6878 366.211 21.1509C366.582 20.6003 367.119 20.1666 367.821 19.85C368.537 19.5334 369.384 19.3751 370.361 19.3751C371.806 19.3751 372.942 19.733 373.768 20.4488C374.608 21.1647 375.09 22.1145 375.214 23.2984H371.951C371.896 22.8992 371.717 22.5826 371.414 22.3485C371.125 22.1145 370.74 21.9975 370.258 21.9975C369.845 21.9975 369.528 22.0801 369.308 22.2453C369.088 22.3967 368.978 22.6101 368.978 22.8854C368.978 23.2158 369.15 23.4636 369.494 23.6288C369.852 23.794 370.402 23.9592 371.146 24.1243C371.999 24.3446 372.694 24.5649 373.231 24.7851C373.768 24.9916 374.236 25.3357 374.635 25.8176C375.048 26.2856 375.262 26.9188 375.276 27.7173C375.276 28.3918 375.083 28.9975 374.697 29.5344C374.326 30.0575 373.782 30.4705 373.066 30.7733C372.364 31.0762 371.545 31.2276 370.609 31.2276Z" fill="#8F8576"/>
<path d="M388.194 19.5403V31.0624H384.663V29.4931C384.305 30.0024 383.816 30.4154 383.197 30.732C382.591 31.0349 381.917 31.1863 381.173 31.1863C380.292 31.1863 379.514 30.9936 378.84 30.6081C378.165 30.2089 377.642 29.6376 377.271 28.8943C376.899 28.1509 376.713 27.2768 376.713 26.2718V19.5403H380.223V25.7969C380.223 26.5678 380.423 27.1666 380.822 27.5934C381.221 28.0201 381.758 28.2335 382.433 28.2335C383.121 28.2335 383.665 28.0201 384.064 27.5934C384.463 27.1666 384.663 26.5678 384.663 25.7969V19.5403H388.194Z" fill="#8F8576"/>
<path d="M404.813 19.4164C406.244 19.4164 407.38 19.85 408.22 20.7173C409.073 21.5845 409.5 22.789 409.5 24.3308V31.0624H405.99V24.8058C405.99 24.0624 405.79 23.4911 405.391 23.0919C405.005 22.6789 404.469 22.4724 403.78 22.4724C403.092 22.4724 402.548 22.6789 402.149 23.0919C401.764 23.4911 401.571 24.0624 401.571 24.8058V31.0624H398.06V24.8058C398.06 24.0624 397.861 23.4911 397.462 23.0919C397.076 22.6789 396.539 22.4724 395.851 22.4724C395.163 22.4724 394.619 22.6789 394.22 23.0919C393.834 23.4911 393.642 24.0624 393.642 24.8058V31.0624H390.111V19.5403H393.642V20.9857C394 20.5039 394.468 20.1253 395.046 19.85C395.624 19.5609 396.278 19.4164 397.007 19.4164C397.875 19.4164 398.646 19.6022 399.32 19.9739C400.008 20.3456 400.545 20.8756 400.931 21.5639C401.33 20.9306 401.874 20.4144 402.562 20.0152C403.25 19.616 404.001 19.4164 404.813 19.4164Z" fill="#8F8576"/>
<path d="M512.085 27.0165H514.918V40.9072H512.085V27.0165Z" fill="#8F8576"/>
<path d="M516.561 36.1479C516.559 35.1502 516.854 34.1743 517.406 33.3438C517.959 32.5133 518.746 31.8655 519.668 31.4824C520.589 31.0993 521.603 30.9981 522.582 31.1916C523.561 31.3851 524.46 31.8646 525.166 32.5695C525.872 33.2743 526.353 34.1728 526.549 35.1512C526.744 36.1296 526.645 37.144 526.263 38.066C525.882 38.9879 525.236 39.776 524.406 40.3305C523.577 40.8851 522.602 41.181 521.604 41.181C520.94 41.1886 520.282 41.0637 519.667 40.8135C519.053 40.5634 518.494 40.1931 518.025 39.7243C517.555 39.2556 517.184 38.6978 516.932 38.0836C516.681 37.4695 516.555 36.8114 516.561 36.1479ZM523.795 36.1479C523.783 35.7172 523.646 35.2993 523.398 34.9466C523.151 34.5938 522.805 34.3219 522.404 34.1647C522.002 34.0075 521.564 33.9722 521.143 34.063C520.722 34.1538 520.337 34.3668 520.036 34.6753C519.735 34.9838 519.532 35.3742 519.452 35.7976C519.372 36.2209 519.418 36.6585 519.586 37.0555C519.753 37.4525 520.034 37.7914 520.393 38.0297C520.752 38.268 521.173 38.3952 521.604 38.3953C521.899 38.4036 522.192 38.3507 522.465 38.2399C522.738 38.1291 522.986 37.9629 523.192 37.7517C523.398 37.5405 523.557 37.289 523.661 37.013C523.765 36.7369 523.81 36.4424 523.795 36.1479Z" fill="#8F8576"/>
<path d="M538.034 31.3886V40.435C538.034 43.6362 535.532 44.9866 533.001 44.9866C532.111 45.0528 531.22 44.8728 530.426 44.4664C529.631 44.06 528.964 43.4428 528.497 42.6825L530.933 41.2755C531.127 41.6651 531.433 41.9878 531.811 42.2016C532.19 42.4154 532.624 42.5106 533.058 42.4747C533.343 42.5223 533.636 42.5037 533.913 42.4203C534.19 42.337 534.444 42.1912 534.655 41.9941C534.867 41.797 535.031 41.5539 535.134 41.2836C535.236 41.0133 535.276 40.723 535.249 40.435V39.5568C534.916 39.9666 534.491 40.2921 534.008 40.507C533.526 40.7219 533 40.8202 532.473 40.7939C531.19 40.7939 529.961 40.2845 529.054 39.3778C528.147 38.4711 527.638 37.2413 527.638 35.959C527.638 34.6767 528.147 33.447 529.054 32.5403C529.961 31.6336 531.19 31.1242 532.473 31.1242C533 31.1001 533.525 31.1994 534.007 31.4141C534.489 31.6289 534.914 31.9532 535.249 32.3612V31.4169L538.034 31.3886ZM535.249 35.959C535.268 35.4998 535.149 35.0454 534.907 34.6542C534.666 34.2631 534.313 33.9531 533.894 33.7642C533.475 33.5752 533.009 33.5159 532.556 33.5939C532.103 33.6718 531.684 33.8835 531.352 34.2016C531.02 34.5198 530.791 34.9299 530.694 35.3792C530.597 35.8285 530.637 36.2966 530.808 36.7231C530.98 37.1497 531.275 37.5152 531.655 37.7728C532.036 38.0305 532.485 38.1683 532.945 38.1687C533.245 38.1899 533.546 38.1481 533.829 38.0458C534.112 37.9435 534.37 37.7832 534.587 37.575C534.804 37.3668 534.975 37.1154 535.089 36.8371C535.203 36.5588 535.257 36.2597 535.249 35.959Z" fill="#8F8576"/>
<path d="M539.668 36.1479C539.666 35.1502 539.961 34.1743 540.513 33.3438C541.066 32.5133 541.853 31.8655 542.775 31.4824C543.696 31.0993 544.71 30.9981 545.689 31.1916C546.668 31.3851 547.567 31.8646 548.273 32.5695C548.979 33.2743 549.46 34.1728 549.656 35.1512C549.851 36.1296 549.752 37.144 549.37 38.066C548.989 38.9879 548.343 39.776 547.513 40.3305C546.684 40.8851 545.708 41.181 544.711 41.181C544.047 41.1886 543.389 41.0637 542.774 40.8135C542.16 40.5634 541.601 40.1931 541.132 39.7243C540.662 39.2556 540.291 38.6978 540.039 38.0836C539.788 37.4695 539.662 36.8114 539.668 36.1479ZM546.902 36.1479C546.89 35.7172 546.752 35.2993 546.505 34.9466C546.258 34.5938 545.912 34.3219 545.511 34.1647C545.109 34.0075 544.671 33.9722 544.25 34.063C543.829 34.1538 543.443 34.3668 543.143 34.6753C542.842 34.9838 542.639 35.3742 542.559 35.7976C542.479 36.2209 542.525 36.6585 542.693 37.0555C542.86 37.4525 543.141 37.7914 543.5 38.0297C543.859 38.268 544.28 38.3952 544.711 38.3953C545.004 38.4009 545.295 38.3461 545.566 38.2341C545.837 38.1221 546.082 37.9555 546.286 37.7446C546.49 37.5338 546.648 37.2831 546.751 37.0084C546.853 36.7337 546.898 36.4407 546.883 36.1479H546.902Z" fill="#8F8576"/>
<path d="M551.066 28.839C551.066 28.4991 551.167 28.1668 551.356 27.8842C551.545 27.6016 551.813 27.3813 552.127 27.2512C552.441 27.1211 552.787 27.0871 553.12 27.1534C553.453 27.2197 553.76 27.3834 554 27.6237C554.24 27.8641 554.404 28.1703 554.47 28.5037C554.537 28.8371 554.503 29.1827 554.373 29.4967C554.243 29.8107 554.022 30.0792 553.74 30.268C553.457 30.4568 553.125 30.5576 552.785 30.5576C552.33 30.5552 551.894 30.3733 551.572 30.0515C551.25 29.7298 551.069 29.2941 551.066 28.839ZM551.359 31.3886H554.192V40.9072H551.359V31.3886Z" fill="#8F8576"/>
<path d="M566.543 36.148C566.577 36.7772 566.487 37.407 566.277 38.0011C566.067 38.5952 565.742 39.1419 565.319 39.6097C564.897 40.0775 564.387 40.4572 563.817 40.7269C563.248 40.9966 562.63 41.151 562.001 41.1812C561.473 41.2065 560.945 41.1157 560.456 40.915C559.966 40.7143 559.527 40.4087 559.168 40.0197V44.7412H556.335V31.3887H559.168V32.2858C559.527 31.8968 559.966 31.5912 560.456 31.3905C560.945 31.1898 561.473 31.099 562.001 31.1243C562.63 31.1545 563.246 31.3086 563.815 31.5777C564.384 31.8469 564.894 32.2257 565.316 32.6925C565.738 33.1593 566.064 33.7048 566.274 34.2978C566.485 34.8908 566.576 35.5196 566.543 36.148ZM563.71 36.148C563.699 35.7048 563.558 35.2746 563.305 34.9107C563.051 34.5469 562.697 34.2652 562.285 34.1008C561.874 33.9363 561.423 33.8962 560.988 33.9855C560.554 34.0747 560.156 34.2894 559.842 34.6029C559.529 34.9164 559.314 35.3149 559.225 35.7492C559.135 36.1835 559.176 36.6344 559.34 37.0461C559.504 37.4578 559.786 37.8123 560.15 38.0655C560.514 38.3188 560.944 38.4598 561.387 38.471C561.697 38.4907 562.006 38.4439 562.296 38.3339C562.586 38.2238 562.849 38.053 563.067 37.833C563.285 37.6129 563.454 37.3487 563.562 37.0581C563.669 36.7675 563.714 36.4572 563.691 36.148H563.71Z" fill="#8F8576"/>
<path d="M575.363 38.0554C575.363 40.2462 573.474 41.181 571.397 41.181C570.567 41.2545 569.734 41.0779 569.005 40.674C568.277 40.2701 567.686 39.6574 567.308 38.9147L569.782 37.5077C569.883 37.8512 570.098 38.15 570.391 38.3544C570.685 38.5588 571.04 38.6566 571.397 38.6314C572.086 38.6314 572.426 38.4142 572.426 38.0365C572.426 36.9883 567.705 37.5455 567.705 34.2593C567.705 32.1818 569.461 31.1336 571.482 31.1336C572.228 31.111 572.966 31.2881 573.62 31.6468C574.274 32.0054 574.821 32.5325 575.203 33.1733L572.719 34.4765C572.609 34.2271 572.43 34.0149 572.202 33.8657C571.974 33.7165 571.707 33.6367 571.435 33.636C570.944 33.636 570.642 33.8249 570.642 34.1743C570.679 35.2602 575.363 34.5331 575.363 38.0554Z" fill="#8F8576"/>
<path d="M585.788 31.3886V40.9072H582.955V40.0196C582.626 40.414 582.207 40.7248 581.735 40.9267C581.262 41.1286 580.748 41.2157 580.236 41.1811C578.347 41.1811 576.676 39.8118 576.676 37.2339V31.3886H579.508V36.8184C579.484 37.0498 579.511 37.2838 579.587 37.5035C579.664 37.7232 579.789 37.923 579.953 38.0885C580.116 38.254 580.315 38.3809 580.533 38.4601C580.752 38.5394 580.986 38.5688 581.218 38.5465C582.256 38.5465 582.984 37.9421 582.984 36.5918V31.3886H585.788Z" fill="#8F8576"/>
<path d="M602.162 35.0713V40.9071H599.329V35.3169C599.329 34.3726 598.867 33.7493 597.96 33.7493C597.054 33.7493 596.468 34.4198 596.468 35.5435V40.9071H593.635V35.3169C593.635 34.3726 593.182 33.7493 592.266 33.7493C591.35 33.7493 590.783 34.4198 590.783 35.5435V40.9071H587.95V31.3886H590.783V32.2668C591.079 31.8789 591.468 31.5712 591.913 31.3717C592.358 31.1721 592.846 31.087 593.333 31.1242C593.822 31.1004 594.308 31.2037 594.745 31.4237C595.182 31.6438 595.554 31.9733 595.826 32.3801C596.142 31.9548 596.561 31.6165 597.043 31.3969C597.525 31.1773 598.055 31.0834 598.583 31.1242C600.736 31.1242 602.162 32.6917 602.162 35.0713Z" fill="#8F8576"/>
<path d="M604.58 31.332C605.748 31.332 606.695 30.3849 606.695 29.2167C606.695 28.0485 605.748 27.1015 604.58 27.1015C603.411 27.1015 602.464 28.0485 602.464 29.2167C602.464 30.3849 603.411 31.332 604.58 31.332Z" fill="#8F8576"/>
<path d="M544.144 19.8115C549.615 19.8115 554.05 15.3765 554.05 9.90573C554.05 4.43496 549.615 0 544.144 0C538.674 0 534.239 4.43496 534.239 9.90573C534.239 15.3765 538.674 19.8115 544.144 19.8115Z" fill="#8F8576"/>
<path d="M566.288 19.8115C571.759 19.8115 576.194 15.3765 576.194 9.90573C576.194 4.43496 571.759 0 566.288 0C560.817 0 556.382 4.43496 556.382 9.90573C556.382 15.3765 560.817 19.8115 566.288 19.8115Z" fill="#8F8576"/>
<path d="M531.906 0H512.104V19.802H531.906V0Z" fill="#8F8576"/>
<path d="M740.02 17.75C740.38 17.75 740.5 17.88 740.5 18.23V26.15H744.57C744.92 26.15 745.05 26.28 745.05 26.63V27.33C745.05 27.68 744.92 27.81 744.57 27.81H739.21C738.86 27.81 738.72 27.68 738.72 27.33V18.23C738.72 17.88 738.86 17.75 739.21 17.75H740.02Z" fill="#8F8576"/>
<path d="M748.6 21.24C748.6 18.93 750.06 17.54 752.6 17.54C755.14 17.54 756.6 18.93 756.6 21.24V24.32C756.6 26.63 755.13 28.02 752.6 28.02C750.07 28.02 748.6 26.63 748.6 24.32V21.24ZM754.92 21.24C754.92 19.94 754.11 19.24 752.65 19.24C751.19 19.24 750.39 19.95 750.39 21.24V24.34C750.39 25.65 751.19 26.34 752.65 26.34C754.11 26.34 754.92 25.62 754.92 24.34V21.24Z" fill="#8F8576"/>
<path d="M768.51 22.3C768.9 22.3 768.99 22.43 768.99 22.78V24.68C769.001 25.1275 768.911 25.5718 768.728 25.9801C768.544 26.3885 768.272 26.7506 767.93 27.04C767.082 27.7155 766.012 28.0506 764.93 27.98C762.34 27.98 760.93 26.59 760.93 24.28V21.18C760.93 18.9 762.39 17.5 764.93 17.5C766.93 17.5 768.23 18.29 768.78 19.87C768.811 19.9294 768.827 19.9951 768.828 20.0619C768.829 20.1288 768.815 20.195 768.785 20.2551C768.756 20.3153 768.714 20.3679 768.661 20.4087C768.608 20.4494 768.546 20.4773 768.48 20.49L767.7 20.76C767.36 20.88 767.22 20.81 767.1 20.46C766.934 20.0329 766.631 19.6731 766.238 19.4377C765.845 19.2023 765.385 19.1045 764.93 19.16C763.46 19.16 762.66 19.87 762.66 21.16V24.34C762.66 25.65 763.47 26.34 764.93 26.34C766.39 26.34 767.29 25.67 767.29 24.69V23.95H765.12C764.76 23.95 764.63 23.81 764.63 23.46V22.78C764.63 22.43 764.76 22.3 765.12 22.3H768.51Z" fill="#8F8576"/>
<path d="M773.12 21.24C773.12 18.93 774.58 17.54 777.12 17.54C779.66 17.54 781.12 18.93 781.12 21.24V24.32C781.12 26.63 779.65 28.02 777.12 28.02C774.59 28.02 773.12 26.63 773.12 24.32V21.24ZM779.43 21.24C779.43 19.94 778.62 19.24 777.17 19.24C775.72 19.24 774.9 19.95 774.9 21.24V24.34C774.9 25.65 775.71 26.34 777.17 26.34C778.63 26.34 779.43 25.62 779.43 24.34V21.24Z" fill="#8F8576"/>
<path d="M785.83 18.04C785.83 17.82 785.9 17.75 786.12 17.75H786.58C786.8 17.75 786.85 17.82 786.85 18.04V27.52C786.85 27.74 786.85 27.81 786.58 27.81H786.12C785.9 27.81 785.83 27.74 785.83 27.52V18.04Z" fill="#8F8576"/>
<path d="M795.96 17.75C796.793 17.75 797.591 18.0808 798.18 18.6697C798.769 19.2585 799.1 20.0572 799.1 20.89C799.1 21.7228 798.769 22.5215 798.18 23.1103C797.591 23.6992 796.793 24.03 795.96 24.03H792.96V27.52C792.96 27.74 792.91 27.81 792.7 27.81H792.23C792.02 27.81 791.94 27.74 791.94 27.52V18.04C791.94 17.82 792.02 17.75 792.23 17.75H795.96ZM795.87 23.04C796.156 23.04 796.44 22.9836 796.704 22.8741C796.969 22.7645 797.209 22.6039 797.411 22.4015C797.614 22.1991 797.774 21.9587 797.884 21.6943C797.994 21.4298 798.05 21.1463 798.05 20.86C798.05 20.5737 797.994 20.2902 797.884 20.0257C797.774 19.7613 797.614 19.5209 797.411 19.3185C797.209 19.1161 796.969 18.9555 796.704 18.8459C796.44 18.7364 796.156 18.68 795.87 18.68H792.87V23.04H795.87Z" fill="#8F8576"/>
<path d="M806.91 17.55C807.682 17.4648 808.461 17.6309 809.131 18.0236C809.801 18.4164 810.327 19.0148 810.63 19.73C810.71 19.89 810.63 20.02 810.47 20.1L810.03 20.3C809.85 20.37 809.78 20.36 809.67 20.17C809.443 19.6392 809.054 19.1942 808.558 18.8994C808.061 18.6046 807.484 18.4752 806.91 18.53C805.22 18.53 804.3 19.2 804.3 20.4C804.29 20.7667 804.413 21.1247 804.647 21.4077C804.88 21.6907 805.208 21.8798 805.57 21.94C806.108 22.1154 806.665 22.2229 807.23 22.26C807.913 22.2964 808.587 22.4346 809.23 22.67C809.723 22.8259 810.147 23.1465 810.431 23.5781C810.715 24.0097 810.842 24.5259 810.79 25.04C810.79 26.91 809.43 28.04 806.93 28.04C806.11 28.1338 805.282 27.9438 804.586 27.5016C803.889 27.0595 803.364 26.3918 803.1 25.61C803.082 25.5744 803.073 25.5353 803.072 25.4955C803.071 25.4557 803.079 25.4163 803.095 25.38C803.112 25.3437 803.136 25.3114 803.166 25.2855C803.196 25.2595 803.231 25.2406 803.27 25.23L803.71 25.07C803.744 25.0558 803.782 25.049 803.819 25.05C803.857 25.051 803.893 25.0598 803.927 25.0758C803.961 25.0918 803.991 25.1146 804.016 25.1429C804.04 25.1712 804.059 25.2042 804.07 25.24C804.294 25.8049 804.691 26.2839 805.206 26.6076C805.72 26.9312 806.324 27.0827 806.93 27.04C808.82 27.04 809.75 26.38 809.75 25.04C809.768 24.6878 809.66 24.3407 809.445 24.0605C809.231 23.7804 808.924 23.5853 808.58 23.51C808.062 23.3557 807.529 23.2617 806.99 23.23L805.91 23.09C805.572 23.0183 805.238 22.9281 804.91 22.82C804.586 22.7221 804.283 22.5625 804.02 22.35C803.755 22.1098 803.545 21.8142 803.407 21.4841C803.269 21.154 803.205 20.7976 803.22 20.44C803.29 18.69 804.6 17.55 806.91 17.55Z" fill="#8F8576"/>
<path d="M816.18 24.39C816.222 25.0972 816.533 25.7615 817.049 26.2472C817.565 26.7329 818.247 27.0033 818.955 27.0033C819.663 27.0033 820.345 26.7329 820.861 26.2472C821.377 25.7615 821.687 25.0972 821.73 24.39V18.04C821.73 17.82 821.8 17.75 822.02 17.75H822.48C822.7 17.75 822.77 17.82 822.77 18.04V24.38C822.77 26.65 821.43 28.02 818.96 28.02C816.49 28.02 815.15 26.65 815.15 24.38V18.04C815.15 17.82 815.22 17.75 815.43 17.75H815.9C816.11 17.75 816.18 17.82 816.18 18.04V24.39Z" fill="#8F8576"/>
<path d="M836.57 17.7501C836.79 17.7501 836.86 17.8201 836.86 18.0401V27.5201C836.86 27.7401 836.79 27.8101 836.57 27.8101H836.15C835.94 27.8101 835.87 27.7401 835.87 27.5201V21.7501C835.87 20.9106 835.927 20.072 836.04 19.2401H835.98C835.668 20.0008 835.303 20.7392 834.89 21.4501L832.74 25.2401C832.714 25.3059 832.668 25.3621 832.609 25.4014C832.55 25.4406 832.481 25.4611 832.41 25.4601H832.13C832.058 25.4605 831.988 25.4398 831.927 25.4008C831.867 25.3617 831.819 25.3059 831.79 25.2401L829.61 21.4101C829.223 20.7094 828.889 19.9807 828.61 19.2301H828.55C828.652 20.0696 828.706 20.9144 828.71 21.7601V27.5201C828.71 27.7401 828.64 27.8101 828.42 27.8101H828.03C827.81 27.8101 827.74 27.7401 827.74 27.5201V18.0401C827.74 17.8201 827.81 17.7501 828.03 17.7501H828.39C828.472 17.7425 828.555 17.7604 828.626 17.8016C828.698 17.8428 828.755 17.9052 828.79 17.9801L832.29 24.2001L835.77 18.0401C835.88 17.8301 835.94 17.8001 836.16 17.8001L836.57 17.7501Z" fill="#8F8576"/>
<path d="M722.23 26.29V33.52C722.23 33.7972 722.12 34.063 721.924 34.2589C721.728 34.4549 721.462 34.565 721.185 34.565C720.908 34.565 720.642 34.4549 720.446 34.2589C720.25 34.063 720.14 33.7972 720.14 33.52V26.3C720.431 26.5125 720.78 26.6311 721.14 26.64C721.533 26.6512 721.917 26.5277 722.23 26.29ZM731.13 24.2C730.865 24.2 730.61 24.3054 730.423 24.4929C730.235 24.6804 730.13 24.9348 730.13 25.2V26.46C730.13 26.7372 730.24 27.003 730.436 27.1989C730.632 27.3949 730.898 27.505 731.175 27.505C731.452 27.505 731.718 27.3949 731.914 27.1989C732.11 27.003 732.22 26.7372 732.22 26.46V25.25C732.228 25.1066 732.205 24.9632 732.152 24.8296C732.099 24.696 732.019 24.5752 731.915 24.4756C731.812 24.376 731.688 24.2998 731.553 24.2522C731.417 24.2047 731.273 24.1869 731.13 24.2ZM717.87 29.03C717.51 29.0192 717.162 28.9008 716.87 28.69V35.94C716.87 36.2185 716.981 36.4856 717.178 36.6825C717.374 36.8794 717.642 36.99 717.92 36.99C718.198 36.99 718.466 36.8794 718.662 36.6825C718.859 36.4856 718.97 36.2185 718.97 35.94V28.74C718.643 28.9511 718.258 29.0527 717.87 29.03ZM727.87 22.03C727.735 22.0232 727.599 22.0441 727.472 22.0913C727.345 22.1385 727.229 22.2111 727.13 22.3046C727.032 22.3982 726.954 22.5107 726.901 22.6354C726.847 22.7601 726.82 22.8944 726.82 23.03V28.6C726.82 28.8785 726.931 29.1456 727.128 29.3425C727.325 29.5394 727.592 29.65 727.87 29.65C728.149 29.65 728.416 29.5394 728.612 29.3425C728.809 29.1456 728.92 28.8785 728.92 28.6V23.1C728.928 22.9557 728.905 22.8114 728.851 22.677C728.798 22.5426 728.717 22.4213 728.612 22.3215C728.507 22.2217 728.382 22.1457 728.246 22.0989C728.109 22.052 727.964 22.0353 727.82 22.05L727.87 22.03ZM724.55 24.17C724.173 24.1674 723.807 24.0487 723.5 23.83V31.1C723.5 31.3785 723.611 31.6456 723.807 31.8425C724.004 32.0394 724.272 32.15 724.55 32.15C724.828 32.15 725.095 32.0394 725.292 31.8425C725.489 31.6456 725.6 31.3785 725.6 31.1V23.84C725.283 24.0763 724.896 24.1995 724.5 24.19L724.55 24.17ZM715.6 29.74V9.43C715.597 9.18243 715.497 8.94591 715.321 8.77178C715.145 8.59765 714.908 8.49999 714.66 8.5H714.44C714.192 8.49999 713.955 8.59765 713.779 8.77178C713.603 8.94591 713.503 9.18243 713.5 9.43V29.74C713.5 29.9893 713.599 30.2284 713.775 30.4047C713.952 30.581 714.191 30.68 714.44 30.68H714.66C714.909 30.68 715.148 30.581 715.325 30.4047C715.501 30.2284 715.6 29.9893 715.6 29.74ZM717.98 28.26H717.76C717.511 28.26 717.272 28.161 717.095 27.9847C716.919 27.8084 716.82 27.5693 716.82 27.32V11.85C716.823 11.6024 716.923 11.3659 717.099 11.1918C717.275 11.0177 717.512 10.92 717.76 10.92H717.98C718.228 10.92 718.465 11.0177 718.641 11.1918C718.817 11.3659 718.917 11.6024 718.92 11.85V27.34C718.92 27.5893 718.821 27.8284 718.645 28.0047C718.468 28.181 718.229 28.28 717.98 28.28V28.26ZM721.29 25.88H721.06C720.813 25.88 720.577 25.782 720.402 25.6076C720.228 25.4332 720.13 25.1967 720.13 24.95V14.25C720.129 14.127 720.152 14.005 720.198 13.891C720.244 13.777 720.312 13.6733 720.399 13.5859C720.485 13.4985 720.588 13.4291 720.702 13.3817C720.815 13.3344 720.937 13.31 721.06 13.31H721.29C721.538 13.3126 721.774 13.4128 721.948 13.5888C722.122 13.7648 722.22 14.0024 722.22 14.25V24.95C722.22 25.1967 722.122 25.4332 721.948 25.6076C721.773 25.782 721.537 25.88 721.29 25.88ZM724.6 23.43H724.39C724.142 23.43 723.905 23.3324 723.729 23.1582C723.553 22.9841 723.453 22.7476 723.45 22.5V16.74C723.442 16.6116 723.46 16.4829 723.504 16.3618C723.547 16.2408 723.615 16.1299 723.703 16.0362C723.791 15.9424 723.898 15.8678 724.016 15.8168C724.134 15.7659 724.261 15.7397 724.39 15.74H724.61C724.859 15.74 725.098 15.839 725.275 16.0153C725.451 16.1916 725.55 16.4307 725.55 16.68V22.48C725.551 22.6043 725.528 22.7276 725.481 22.8428C725.435 22.958 725.366 23.0628 725.278 23.1512C725.191 23.2395 725.087 23.3096 724.972 23.3575C724.857 23.4054 724.734 23.43 724.61 23.43H724.6ZM727.92 21.28H727.7C727.451 21.28 727.212 21.181 727.035 21.0047C726.859 20.8284 726.76 20.5893 726.76 20.34V18.85C726.763 18.6024 726.863 18.3659 727.039 18.1918C727.215 18.0176 727.452 17.92 727.7 17.92H727.92C728.168 17.92 728.405 18.0176 728.581 18.1918C728.757 18.3659 728.857 18.6024 728.86 18.85V20.34C728.86 20.5876 728.762 20.8252 728.588 21.0012C728.414 21.1772 728.178 21.2774 727.93 21.28H727.92Z" fill="#8F8576"/>
<path d="M951.947 32.468C948.961 35.4542 943.903 35.4423 942.491 31.4624C942.214 30.6832 941.993 29.882 941.831 29.0645C941.167 25.7265 941.507 22.2667 942.81 19.1224C944.112 15.9782 946.318 13.2908 949.148 11.4C951.977 9.5092 955.304 8.5 958.708 8.5C962.111 8.5 965.438 9.5092 968.267 11.4C971.097 13.2908 973.303 15.9782 974.605 19.1225C975.907 22.2667 976.248 25.7265 975.584 29.0645C975.422 29.882 975.201 30.6832 974.924 31.4624C973.512 35.4423 968.454 35.4542 965.468 32.468L960.858 27.8584C960.418 27.418 960.463 26.6917 960.585 26.0809C960.659 25.7096 960.621 25.3247 960.476 24.9749C960.331 24.6251 960.086 24.3261 959.771 24.1158C959.456 23.9055 959.086 23.7932 958.708 23.7932C958.329 23.7932 957.959 23.9055 957.644 24.1158C957.329 24.3261 957.084 24.6251 956.939 24.9749C956.794 25.3247 956.756 25.7096 956.83 26.0809C956.951 26.6917 956.997 27.418 956.557 27.8584L951.947 32.468Z" fill="#8F8576"/>
<path d="M989.914 28.3367H994.54V31.0624H986.383V16.5668H989.914V28.3367Z" fill="#8F8576"/>
<path d="M1000.85 31.2276C999.72 31.2276 998.702 30.9867 997.793 30.5049C996.898 30.0231 996.189 29.3348 995.666 28.44C995.157 27.5452 994.902 26.499 994.902 25.3013C994.902 24.1175 995.164 23.0781 995.687 22.1833C996.21 21.2748 996.926 20.5796 997.834 20.0978C998.743 19.616 999.762 19.3751 1000.89 19.3751C1002.02 19.3751 1003.04 19.616 1003.95 20.0978C1004.86 20.5796 1005.57 21.2748 1006.09 22.1833C1006.62 23.0781 1006.88 24.1175 1006.88 25.3013C1006.88 26.4852 1006.61 27.5314 1006.07 28.44C1005.55 29.3348 1004.83 30.0231 1003.91 30.5049C1003 30.9867 1001.98 31.2276 1000.85 31.2276ZM1000.85 28.1715C1001.52 28.1715 1002.1 27.9238 1002.56 27.4282C1003.04 26.9326 1003.29 26.2237 1003.29 25.3013C1003.29 24.379 1003.05 23.6701 1002.58 23.1745C1002.13 22.6789 1001.57 22.4311 1000.89 22.4311C1000.2 22.4311 999.631 22.6789 999.177 23.1745C998.722 23.6563 998.495 24.3652 998.495 25.3013C998.495 26.2237 998.716 26.9326 999.156 27.4282C999.61 27.9238 1000.17 28.1715 1000.85 28.1715Z" fill="#8F8576"/>
<path d="M1012.51 19.3751C1013.32 19.3751 1014.03 19.5403 1014.64 19.8707C1015.26 20.201 1015.73 20.6347 1016.06 21.1715V19.5403H1019.59V31.0417C1019.59 32.1017 1019.38 33.0585 1018.95 33.9119C1018.54 34.7792 1017.9 35.4675 1017.03 35.9768C1016.18 36.4862 1015.11 36.7409 1013.83 36.7409C1012.12 36.7409 1010.74 36.3348 1009.68 35.5226C1008.62 34.7241 1008.02 33.6366 1007.86 32.26H1011.35C1011.46 32.7005 1011.73 33.0447 1012.14 33.2925C1012.55 33.554 1013.06 33.6848 1013.67 33.6848C1014.4 33.6848 1014.97 33.4714 1015.4 33.0447C1015.84 32.6317 1016.06 31.9641 1016.06 31.0417V29.4105C1015.72 29.9473 1015.24 30.3879 1014.64 30.732C1014.03 31.0624 1013.32 31.2276 1012.51 31.2276C1011.56 31.2276 1010.7 30.9867 1009.93 30.5049C1009.16 30.0093 1008.55 29.3141 1008.09 28.4193C1007.65 27.5108 1007.43 26.4646 1007.43 25.2807C1007.43 24.0968 1007.65 23.0575 1008.09 22.1627C1008.55 21.2679 1009.16 20.5796 1009.93 20.0978C1010.7 19.616 1011.56 19.3751 1012.51 19.3751ZM1016.06 25.3013C1016.06 24.4203 1015.81 23.7251 1015.32 23.2158C1014.84 22.7065 1014.24 22.4518 1013.54 22.4518C1012.84 22.4518 1012.24 22.7065 1011.75 23.2158C1011.26 23.7114 1011.02 24.3997 1011.02 25.2807C1011.02 26.1617 1011.26 26.8638 1011.75 27.3869C1012.24 27.8962 1012.84 28.1509 1013.54 28.1509C1014.24 28.1509 1014.84 27.8962 1015.32 27.3869C1015.81 26.8775 1016.06 26.1824 1016.06 25.3013Z" fill="#8F8576"/>
<path d="M1026.77 31.2276C1025.64 31.2276 1024.63 30.9867 1023.72 30.5049C1022.82 30.0231 1022.11 29.3348 1021.59 28.44C1021.08 27.5452 1020.83 26.499 1020.83 25.3013C1020.83 24.1175 1021.09 23.0781 1021.61 22.1833C1022.13 21.2748 1022.85 20.5796 1023.76 20.0978C1024.67 19.616 1025.69 19.3751 1026.81 19.3751C1027.94 19.3751 1028.96 19.616 1029.87 20.0978C1030.78 20.5796 1031.49 21.2748 1032.02 22.1833C1032.54 23.0781 1032.8 24.1175 1032.8 25.3013C1032.8 26.4852 1032.53 27.5314 1032 28.44C1031.47 29.3348 1030.75 30.0231 1029.83 30.5049C1028.92 30.9867 1027.9 31.2276 1026.77 31.2276ZM1026.77 28.1715C1027.45 28.1715 1028.02 27.9238 1028.49 27.4282C1028.97 26.9326 1029.21 26.2237 1029.21 25.3013C1029.21 24.379 1028.98 23.6701 1028.51 23.1745C1028.05 22.6789 1027.49 22.4311 1026.81 22.4311C1026.13 22.4311 1025.55 22.6789 1025.1 23.1745C1024.65 23.6563 1024.42 24.3652 1024.42 25.3013C1024.42 26.2237 1024.64 26.9326 1025.08 27.4282C1025.53 27.9238 1026.1 28.1715 1026.77 28.1715Z" fill="#8F8576"/>
<path d="M1035.83 18.3426C1035.21 18.3426 1034.7 18.1637 1034.3 17.8058C1033.92 17.4341 1033.73 16.9798 1033.73 16.4429C1033.73 15.8923 1033.92 15.438 1034.3 15.0801C1034.7 14.7084 1035.21 14.5226 1035.83 14.5226C1036.44 14.5226 1036.93 14.7084 1037.32 15.0801C1037.72 15.438 1037.92 15.8923 1037.92 16.4429C1037.92 16.9798 1037.72 17.4341 1037.32 17.8058C1036.93 18.1637 1036.44 18.3426 1035.83 18.3426ZM1037.59 19.5403V31.0624H1034.06V19.5403H1037.59Z" fill="#8F8576"/>
<path d="M1043.06 21.1715C1043.4 20.6347 1043.88 20.201 1044.48 19.8707C1045.09 19.5403 1045.8 19.3751 1046.61 19.3751C1047.56 19.3751 1048.42 19.616 1049.19 20.0978C1049.96 20.5796 1050.57 21.2679 1051.01 22.1627C1051.46 23.0575 1051.69 24.0968 1051.69 25.2807C1051.69 26.4646 1051.46 27.5108 1051.01 28.4193C1050.57 29.3141 1049.96 30.0093 1049.19 30.5049C1048.42 30.9867 1047.56 31.2276 1046.61 31.2276C1045.81 31.2276 1045.1 31.0624 1044.48 30.732C1043.88 30.4016 1043.4 29.9749 1043.06 29.4518V36.555H1039.53V19.5403H1043.06V21.1715ZM1048.1 25.2807C1048.1 24.3997 1047.85 23.7114 1047.35 23.2158C1046.87 22.7065 1046.27 22.4518 1045.56 22.4518C1044.85 22.4518 1044.26 22.7065 1043.76 23.2158C1043.28 23.7251 1043.04 24.4203 1043.04 25.3013C1043.04 26.1824 1043.28 26.8775 1043.76 27.3869C1044.26 27.8962 1044.85 28.1509 1045.56 28.1509C1046.26 28.1509 1046.86 27.8962 1047.35 27.3869C1047.85 26.8638 1048.1 26.1617 1048.1 25.2807Z" fill="#8F8576"/>
<path d="M1057.61 31.2276C1056.6 31.2276 1055.71 31.0555 1054.92 30.7114C1054.14 30.3672 1053.52 29.8992 1053.07 29.3072C1052.61 28.7015 1052.36 28.027 1052.3 27.2836H1055.79C1055.83 27.6828 1056.02 28.0063 1056.35 28.2541C1056.68 28.5019 1057.09 28.6258 1057.57 28.6258C1058.01 28.6258 1058.34 28.5432 1058.58 28.378C1058.83 28.1991 1058.95 27.9719 1058.95 27.6966C1058.95 27.3662 1058.78 27.1253 1058.43 26.9739C1058.09 26.8087 1057.53 26.6298 1056.76 26.437C1055.94 26.2443 1055.25 26.0447 1054.7 25.8382C1054.15 25.618 1053.67 25.2807 1053.27 24.8264C1052.87 24.3584 1052.67 23.732 1052.67 22.9474C1052.67 22.2866 1052.85 21.6878 1053.21 21.1509C1053.58 20.6003 1054.12 20.1666 1054.82 19.85C1055.54 19.5334 1056.38 19.3751 1057.36 19.3751C1058.81 19.3751 1059.94 19.733 1060.77 20.4488C1061.61 21.1647 1062.09 22.1145 1062.21 23.2984H1058.95C1058.9 22.8992 1058.72 22.5826 1058.41 22.3485C1058.12 22.1145 1057.74 21.9975 1057.26 21.9975C1056.84 21.9975 1056.53 22.0801 1056.31 22.2453C1056.09 22.3967 1055.98 22.6101 1055.98 22.8854C1055.98 23.2158 1056.15 23.4636 1056.49 23.6288C1056.85 23.794 1057.4 23.9592 1058.15 24.1243C1059 24.3446 1059.69 24.5649 1060.23 24.7851C1060.77 24.9916 1061.24 25.3357 1061.63 25.8176C1062.05 26.2856 1062.26 26.9188 1062.28 27.7173C1062.28 28.3918 1062.08 28.9975 1061.7 29.5344C1061.33 30.0575 1060.78 30.4705 1060.07 30.7733C1059.36 31.0762 1058.54 31.2276 1057.61 31.2276Z" fill="#8F8576"/>
<path d="M1075.19 19.5403V31.0624H1071.66V29.4931C1071.3 30.0024 1070.82 30.4154 1070.2 30.732C1069.59 31.0349 1068.92 31.1863 1068.17 31.1863C1067.29 31.1863 1066.51 30.9936 1065.84 30.6081C1065.16 30.2089 1064.64 29.6376 1064.27 28.8943C1063.9 28.1509 1063.71 27.2768 1063.71 26.2718V19.5403H1067.22V25.7969C1067.22 26.5678 1067.42 27.1666 1067.82 27.5934C1068.22 28.0201 1068.76 28.2335 1069.43 28.2335C1070.12 28.2335 1070.66 28.0201 1071.06 27.5934C1071.46 27.1666 1071.66 26.5678 1071.66 25.7969V19.5403H1075.19Z" fill="#8F8576"/>
<path d="M1091.81 19.4164C1093.24 19.4164 1094.38 19.85 1095.22 20.7173C1096.07 21.5845 1096.5 22.789 1096.5 24.3308V31.0624H1092.99V24.8058C1092.99 24.0624 1092.79 23.4911 1092.39 23.0919C1092 22.6789 1091.47 22.4724 1090.78 22.4724C1090.09 22.4724 1089.55 22.6789 1089.15 23.0919C1088.76 23.4911 1088.57 24.0624 1088.57 24.8058V31.0624H1085.06V24.8058C1085.06 24.0624 1084.86 23.4911 1084.46 23.0919C1084.08 22.6789 1083.54 22.4724 1082.85 22.4724C1082.16 22.4724 1081.62 22.6789 1081.22 23.0919C1080.83 23.4911 1080.64 24.0624 1080.64 24.8058V31.0624H1077.11V19.5403H1080.64V20.9857C1081 20.5039 1081.47 20.1253 1082.05 19.85C1082.62 19.5609 1083.28 19.4164 1084.01 19.4164C1084.87 19.4164 1085.65 19.6022 1086.32 19.9739C1087.01 20.3456 1087.54 20.8756 1087.93 21.5639C1088.33 20.9306 1088.87 20.4144 1089.56 20.0152C1090.25 19.616 1091 19.4164 1091.81 19.4164Z" fill="#8F8576"/>
<path fill-rule="evenodd" clip-rule="evenodd" d="M39.5 107.5C45.0228 107.5 49.5 111.977 49.5 117.5V107.5H59.5C65.0228 107.5 69.5 111.977 69.5 117.5C69.5 123.023 65.0228 127.5 59.5 127.5C65.0228 127.5 69.5 131.977 69.5 137.5C69.5 140.242 68.3961 142.727 66.6085 144.533L66.5711 144.571L66.5379 144.604C64.7309 146.394 62.2446 147.5 59.5 147.5C56.7741 147.5 54.3029 146.409 52.499 144.64C52.4756 144.618 52.4522 144.594 52.4289 144.571C52.407 144.549 52.3852 144.527 52.3635 144.505C50.5924 142.701 49.5 140.228 49.5 137.5C49.5 143.023 45.0228 147.5 39.5 147.5C33.9771 147.5 29.5 143.023 29.5 137.5V127.5H39.5C33.9771 127.5 29.5 123.023 29.5 117.5C29.5 111.977 33.9771 107.5 39.5 107.5ZM47.5 117.5C47.5 121.918 43.9183 125.5 39.5 125.5V109.5C43.9183 109.5 47.5 113.082 47.5 117.5ZM67.5 137.5C67.5 133.082 63.9183 129.5 59.5 129.5C55.0817 129.5 51.5 133.082 51.5 137.5H67.5ZM31.5 129.5V137.5C31.5 141.918 35.0817 145.5 39.5 145.5C43.9183 145.5 47.5 141.918 47.5 137.5V129.5H31.5ZM51.5 125.5V109.5H59.5C63.9183 109.5 67.5 113.082 67.5 117.5C67.5 121.918 63.9183 125.5 59.5 125.5H51.5Z" fill="#8F8576"/>
<path fill-rule="evenodd" clip-rule="evenodd" d="M183.215 107.516C180.958 107.516 178.794 108.412 177.199 110.008L169.5 117.707V121.231C169.5 123.72 170.569 125.96 172.274 127.516C170.569 129.072 169.5 131.312 169.5 133.802V137.326L177.199 145.024C178.794 146.62 180.958 147.516 183.215 147.516C185.704 147.516 187.944 146.447 189.5 144.742C191.056 146.447 193.296 147.516 195.785 147.516C198.042 147.516 200.206 146.62 201.801 145.024L209.5 137.326V133.802C209.5 131.312 208.431 129.072 206.726 127.516C208.431 125.96 209.5 123.72 209.5 121.231V117.707L201.801 110.008C200.206 108.412 198.042 107.516 195.785 107.516C193.296 107.516 191.056 108.586 189.5 110.29C187.944 108.586 185.704 107.516 183.215 107.516ZM195.259 127.516C195.163 127.429 195.069 127.339 194.977 127.247L189.5 121.77L184.023 127.247C183.931 127.339 183.837 127.429 183.741 127.516C183.837 127.604 183.931 127.694 184.023 127.786L189.5 133.262L194.977 127.786C195.069 127.694 195.163 127.604 195.259 127.516ZM191.722 137.326V139.008C191.722 141.252 193.541 143.072 195.785 143.072C196.863 143.072 197.897 142.644 198.659 141.882L205.056 135.485V133.802C205.056 131.558 203.236 129.738 200.992 129.738C199.915 129.738 198.881 130.166 198.119 130.928L191.722 137.326ZM187.278 137.326L180.881 130.928C180.119 130.166 179.085 129.738 178.008 129.738C175.764 129.738 173.944 131.558 173.944 133.802V135.485L180.342 141.882C181.104 142.644 182.137 143.072 183.215 143.072C185.459 143.072 187.278 141.252 187.278 139.008V137.326ZM187.278 116.024V117.707L180.881 124.104C180.119 124.866 179.085 125.294 178.008 125.294C175.764 125.294 173.944 123.475 173.944 121.231V119.548L180.342 113.151C181.104 112.389 182.137 111.961 183.215 111.961C185.459 111.961 187.278 113.78 187.278 116.024ZM198.119 124.104L191.722 117.707V116.024C191.722 113.78 193.541 111.961 195.785 111.961C196.863 111.961 197.897 112.389 198.659 113.151L205.056 119.548V121.231C205.056 123.475 203.236 125.294 200.992 125.294C199.915 125.294 198.881 124.866 198.119 124.104Z" fill="#8F8576"/>
<path d="M349.445 129H342.3C336.059 129 331 134.059 331 140.3V147.444C340.85 146.714 348.714 138.85 349.445 129Z" fill="#8F8576"/>
<path d="M328 147.444V140.3C328 134.059 322.941 129 316.7 129H309.556C310.286 138.85 318.15 146.714 328 147.444Z" fill="#8F8576"/>
<path d="M349.445 126C348.714 116.15 340.85 108.286 331 107.555V114.7C331 120.941 336.059 126 342.3 126H349.445Z" fill="#8F8576"/>
<path d="M328 107.555C318.15 108.286 310.286 116.15 309.556 126H316.7C322.941 126 328 120.941 328 114.7V107.555Z" fill="#8F8576"/>
<path d="M323.083 127.5C325.856 126.115 328.115 123.855 329.5 121.083C330.886 123.855 333.145 126.115 335.918 127.5C333.145 128.885 330.886 131.145 329.5 133.917C328.115 131.145 325.856 128.885 323.083 127.5Z" fill="#8F8576"/>
<path fill-rule="evenodd" clip-rule="evenodd" d="M475.056 119.185C473.411 118.087 471.478 117.5 469.5 117.5V107.5C473.456 107.5 477.322 108.673 480.611 110.871C483.9 113.068 486.464 116.192 487.978 119.846C489.491 123.501 489.887 127.522 489.116 131.402C488.344 135.281 486.439 138.845 483.642 141.642C480.845 144.439 477.281 146.344 473.402 147.116C469.522 147.887 465.501 147.491 461.846 145.978C458.192 144.464 455.068 141.9 452.871 138.611C450.673 135.322 449.5 131.456 449.5 127.5H459.5C459.5 129.478 460.087 131.411 461.185 133.056C462.284 134.7 463.846 135.982 465.673 136.739C467.5 137.496 469.511 137.694 471.451 137.308C473.391 136.922 475.173 135.97 476.571 134.571C477.97 133.173 478.922 131.391 479.308 129.451C479.694 127.511 479.496 125.5 478.739 123.673C477.982 121.846 476.7 120.284 475.056 119.185Z" fill="#8F8576"/>
<path fill-rule="evenodd" clip-rule="evenodd" d="M459.5 107.5C459.5 108.813 459.241 110.114 458.739 111.327C458.236 112.54 457.5 113.642 456.571 114.571C455.642 115.5 454.54 116.236 453.327 116.739C452.114 117.241 450.813 117.5 449.5 117.5L449.5 127.5C452.126 127.5 454.727 126.983 457.154 125.978C459.58 124.973 461.785 123.499 463.642 121.642C465.499 119.785 466.972 117.58 467.978 115.154C468.983 112.727 469.5 110.126 469.5 107.5L459.5 107.5Z" fill="#8F8576"/>
<path d="M591.484 132.79C591.484 130.53 591.93 128.292 592.794 126.204C593.659 124.116 594.927 122.219 596.525 120.621C598.123 119.023 600.02 117.755 602.108 116.89C604.196 116.025 606.434 115.58 608.694 115.58V132.79H591.484Z" fill="#8F8576"/>
<path d="M591.484 132.79C591.484 135.05 591.93 137.288 592.794 139.376C593.659 141.464 594.927 143.361 596.525 144.959C598.123 146.557 600.02 147.825 602.108 148.69C604.196 149.555 606.434 150 608.694 150V132.79H591.484Z" fill="#8F8576"/>
<path d="M625.904 132.79C625.904 135.05 625.46 137.288 624.595 139.376C623.73 141.464 622.462 143.361 620.864 144.959C619.266 146.557 617.369 147.825 615.28 148.69C613.193 149.555 610.955 150 608.695 150V132.79H625.904Z" fill="#8F8576"/>
<path d="M636.516 117.922C636.516 125.059 630.73 130.844 623.594 130.844H610.672V117.922C610.672 110.785 616.457 105 623.594 105C630.73 105 636.516 110.785 636.516 117.922Z" fill="#8F8576"/>
<path fill-rule="evenodd" clip-rule="evenodd" d="M778.5 117.5C778.5 123.023 774.023 127.5 768.5 127.5L778.5 127.5L778.5 137.5C778.5 143.023 774.023 147.5 768.5 147.5C762.977 147.5 758.5 143.023 758.5 137.5C758.5 143.023 754.023 147.5 748.5 147.5C745.758 147.5 743.273 146.396 741.467 144.608L741.429 144.571L741.396 144.538C739.606 142.731 738.5 140.245 738.5 137.5C738.5 134.774 739.591 132.303 741.359 130.499C741.382 130.476 741.406 130.452 741.429 130.429C741.451 130.407 741.473 130.385 741.495 130.363C743.299 128.592 745.772 127.5 748.5 127.5C742.977 127.5 738.5 123.023 738.5 117.5C738.5 111.977 742.977 107.5 748.5 107.5L758.5 107.5L758.5 117.5C758.5 111.977 762.977 107.5 768.5 107.5C774.023 107.5 778.5 111.977 778.5 117.5ZM768.5 125.5C764.082 125.5 760.5 121.918 760.5 117.5L776.5 117.5C776.5 121.918 772.918 125.5 768.5 125.5ZM748.5 145.5C752.918 145.5 756.5 141.918 756.5 137.5C756.5 133.082 752.918 129.5 748.5 129.5L748.5 145.5ZM756.5 109.5L748.5 109.5C744.082 109.5 740.5 113.082 740.5 117.5C740.5 121.918 744.082 125.5 748.5 125.5L756.5 125.5L756.5 109.5ZM760.5 129.5L776.5 129.5L776.5 137.5C776.5 141.918 772.918 145.5 768.5 145.5C764.082 145.5 760.5 141.918 760.5 137.5L760.5 129.5Z" fill="#8F8576"/>
<path d="M903 116.25C903 122.463 897.963 127.5 891.75 127.5H880.5V116.25C880.5 110.037 885.537 105 891.75 105C897.963 105 903 110.037 903 116.25Z" fill="#8F8576"/>
<path d="M903 138.75C903 132.537 908.037 127.5 914.25 127.5H925.5V138.75C925.5 144.963 920.463 150 914.25 150C908.037 150 903 144.963 903 138.75Z" fill="#8F8576"/>
<path d="M880.5 138.75C880.5 144.963 885.537 150 891.75 150H903V138.75C903 132.537 897.963 127.5 891.75 127.5C885.537 127.5 880.5 132.537 880.5 138.75Z" fill="#8F8576"/>
<path d="M925.5 116.25C925.5 110.037 920.463 105 914.25 105H903V116.25C903 122.463 908.037 127.5 914.25 127.5C920.463 127.5 925.5 122.463 925.5 116.25Z" fill="#8F8576"/>
<path fill-rule="evenodd" clip-rule="evenodd" d="M1039.19 121.944C1038.09 123.589 1037.5 125.522 1037.5 127.5L1027.5 127.5C1027.5 123.544 1028.67 119.678 1030.87 116.389C1033.07 113.1 1036.19 110.536 1039.85 109.022C1043.5 107.509 1047.52 107.113 1051.4 107.884C1055.28 108.656 1058.85 110.561 1061.64 113.358C1064.44 116.155 1066.34 119.719 1067.12 123.598C1067.89 127.478 1067.49 131.499 1065.98 135.154C1064.46 138.808 1061.9 141.932 1058.61 144.129C1055.32 146.327 1051.46 147.5 1047.5 147.5L1047.5 137.5C1049.48 137.5 1051.41 136.913 1053.06 135.815C1054.7 134.716 1055.98 133.154 1056.74 131.327C1057.5 129.5 1057.69 127.489 1057.31 125.549C1056.92 123.609 1055.97 121.827 1054.57 120.429C1053.17 119.03 1051.39 118.078 1049.45 117.692C1047.51 117.306 1045.5 117.504 1043.67 118.261C1041.85 119.018 1040.28 120.3 1039.19 121.944Z" fill="#8F8576"/>
<path fill-rule="evenodd" clip-rule="evenodd" d="M1027.5 137.5C1028.81 137.5 1030.11 137.759 1031.33 138.261C1032.54 138.764 1033.64 139.5 1034.57 140.429C1035.5 141.358 1036.24 142.46 1036.74 143.673C1037.24 144.886 1037.5 146.187 1037.5 147.5L1047.5 147.5C1047.5 144.874 1046.98 142.273 1045.98 139.846C1044.97 137.42 1043.5 135.215 1041.64 133.358C1039.79 131.501 1037.58 130.028 1035.15 129.022C1032.73 128.017 1030.13 127.5 1027.5 127.5L1027.5 137.5Z" fill="#8F8576"/>
<path fill-rule="evenodd" clip-rule="evenodd" d="M56.2146 208.516C53.9582 208.516 51.7943 209.412 50.1988 211.008L42.5 218.707V222.231C42.5 224.72 43.5694 226.96 45.274 228.516C43.5694 230.072 42.5 232.312 42.5 234.802V238.326L50.1988 246.024C51.7943 247.62 53.9582 248.516 56.2146 248.516C58.7043 248.516 60.9442 247.447 62.5 245.742C64.0558 247.447 66.2957 248.516 68.7854 248.516C71.0418 248.516 73.2057 247.62 74.8012 246.024L82.5 238.326V234.802C82.5 232.312 81.4306 230.072 79.726 228.516C81.4306 226.96 82.5 224.72 82.5 222.231V218.707L74.8012 211.008C73.2057 209.412 71.0418 208.516 68.7854 208.516C66.2957 208.516 64.0558 209.586 62.5 211.29C60.9442 209.586 58.7043 208.516 56.2146 208.516ZM68.2588 228.516C68.1629 228.429 68.0688 228.339 67.9766 228.247L62.5 222.77L57.0234 228.247C56.9312 228.339 56.8371 228.429 56.7412 228.516C56.8371 228.604 56.9312 228.694 57.0234 228.786L62.5 234.262L67.9766 228.786C68.0688 228.694 68.1629 228.604 68.2588 228.516ZM64.7222 238.326V240.008C64.7222 242.252 66.5414 244.072 68.7854 244.072C69.863 244.072 70.8965 243.644 71.6585 242.882L78.0556 236.485V234.802C78.0556 232.558 76.2364 230.738 73.9924 230.738C72.9148 230.738 71.8813 231.166 71.1193 231.928L64.7222 238.326ZM60.2778 238.326L53.8807 231.928C53.1187 231.166 52.0852 230.738 51.0076 230.738C48.7636 230.738 46.9444 232.558 46.9444 234.802V236.485L53.3415 242.882C54.1035 243.644 55.137 244.072 56.2146 244.072C58.4586 244.072 60.2778 242.252 60.2778 240.008V238.326ZM60.2778 217.024V218.707L53.8807 225.104C53.1187 225.866 52.0852 226.294 51.0076 226.294C48.7636 226.294 46.9444 224.475 46.9444 222.231V220.548L53.3415 214.151C54.1035 213.389 55.137 212.961 56.2146 212.961C58.4586 212.961 60.2778 214.78 60.2778 217.024ZM71.1193 225.104L64.7222 218.707V217.024C64.7222 214.78 66.5414 212.961 68.7854 212.961C69.863 212.961 70.8965 213.389 71.6585 214.151L78.0556 220.548V222.231C78.0556 224.475 76.2364 226.294 73.9924 226.294C72.9148 226.294 71.8813 225.866 71.1193 225.104Z" fill="#8F8576"/>
<path d="M182.915 230.855L211.005 209.702L226.085 209.702L226.085 219.573L216.426 219.573L196.024 234.937L196.024 238.129L226.085 238.129L226.085 248L182.915 248L182.915 230.855ZM197.896 219.573L182.915 219.573L182.915 209.702L197.896 209.702L197.896 219.573Z" fill="#8F8576"/>
<path d="M342.999 211H364.081L348.582 233.973H327.5L342.999 211Z" fill="#8F8576"/>
<path d="M343.922 236.102L337.919 245H360.001L375.5 222.027H359.202L349.706 236.102H343.922Z" fill="#8F8576"/>
<path d="M536.707 224.675H545.122L547.903 215.546H539.476L536.707 224.675Z" fill="#8F8576"/>
<path fill-rule="evenodd" clip-rule="evenodd" d="M552.562 247.54V247.445C552.562 247.431 552.575 247.417 552.591 247.4C552.615 247.374 552.646 247.341 552.646 247.291V246.889L552.116 237.961C552.106 237.836 552.069 237.715 552.008 237.606V237.523L551.057 236.457H553.465C553.643 236.457 553.819 236.421 553.982 236.35C554.031 236.339 554.043 236.327 554.139 236.268C554.175 236.245 554.213 236.224 554.252 236.204C554.315 236.169 554.38 236.134 554.44 236.09L554.62 235.936L554.741 235.794C554.813 235.758 554.813 235.699 554.813 235.699L554.897 235.545L554.97 235.368L560.495 217.263C560.5 217.196 560.5 217.129 560.495 217.062C560.499 217.014 560.5 216.967 560.5 216.92C560.5 216.88 560.498 216.841 560.495 216.801V216.742C560.483 216.636 560.446 216.535 560.387 216.446L560.315 216.363L554.825 210.17C554.739 210.069 554.63 209.988 554.506 209.935C554.383 209.882 554.249 209.857 554.115 209.862H536.538C536.188 209.882 535.852 210.006 535.575 210.217C535.297 210.428 535.092 210.718 534.985 211.046L534.371 213.071L530.763 209.037C530.796 209.075 530.823 209.118 530.844 209.164C530.764 209.033 530.651 208.926 530.516 208.853C530.38 208.781 530.227 208.745 530.073 208.749H525.258C524.838 208.763 524.441 208.937 524.15 209.235C523.997 209.367 523.873 209.529 523.786 209.71C523.7 209.891 523.651 210.088 523.645 210.289L523.729 214.835L518.913 209.377C518.829 209.275 518.722 209.193 518.602 209.138C518.481 209.082 518.348 209.055 518.215 209.057H502.312C501.96 209.076 501.622 209.199 501.342 209.411C501.063 209.622 500.855 209.912 500.746 210.241L500.626 210.561L499.085 208.82C499.003 208.716 498.897 208.633 498.775 208.577C498.654 208.522 498.521 208.496 498.387 208.501H493.884C493.535 208.525 493.202 208.65 492.925 208.861C492.649 209.072 492.442 209.359 492.331 209.685L491.549 212.266H486.733C486.384 212.289 486.049 212.414 485.773 212.625C485.496 212.836 485.29 213.123 485.18 213.45L483.868 217.784C483.806 217.951 483.796 218.132 483.839 218.305C483.873 218.442 483.939 218.569 484.031 218.675C484.02 218.672 484.012 218.672 484.012 218.672L484.41 219.122V219.205C482.406 226.073 479.8 232.756 476.621 239.18C476.541 239.332 476.5 239.501 476.5 239.672C476.5 239.843 476.541 240.011 476.621 240.163C476.682 240.266 476.769 240.351 476.873 240.412C476.815 240.386 476.762 240.35 476.717 240.305L482.339 246.297C482.426 246.388 482.533 246.46 482.652 246.507C482.77 246.554 482.898 246.575 483.025 246.569H487.155L488.539 248.12C488.626 248.213 488.732 248.287 488.85 248.336C488.969 248.385 489.097 248.409 489.225 248.404H493.692C493.865 248.397 494.036 248.361 494.197 248.298L494.354 248.215C494.462 248.163 494.567 248.103 494.667 248.037C494.729 247.992 494.785 247.941 494.835 247.883L494.956 247.741L495.028 247.647C495.051 247.593 495.08 247.541 495.112 247.493C495.138 247.435 495.158 247.376 495.172 247.315L495.257 247.031H499.049L500.096 248.215C500.185 248.31 500.293 248.384 500.413 248.433C500.534 248.483 500.664 248.505 500.795 248.499H507.946C508.119 248.492 508.29 248.456 508.451 248.393L508.608 248.31C508.716 248.258 508.821 248.198 508.921 248.132C508.983 248.087 509.039 248.035 509.09 247.978L509.21 247.836L509.282 247.741L509.354 247.587C509.389 247.533 509.413 247.473 509.427 247.41L509.992 245.563L511.293 247.031C511.38 247.123 511.487 247.194 511.605 247.242C511.724 247.289 511.851 247.31 511.979 247.303H515.927C516.104 247.302 516.28 247.27 516.445 247.208L516.794 246.782C516.901 246.734 517.002 246.675 517.095 246.605L517.264 246.451L517.396 246.309L517.469 246.214C517.504 246.167 517.532 246.115 517.553 246.06L517.625 245.894C517.71 245.652 517.779 245.4 517.85 245.145C517.89 245.001 517.931 244.855 517.974 244.71L520.984 248.097L521.08 248.191C521.25 248.327 521.464 248.398 521.682 248.393C521.844 248.395 522.004 248.363 522.152 248.298L528.46 246.084L530.254 248.108C530.341 248.202 530.447 248.275 530.565 248.324C530.684 248.373 530.812 248.397 530.94 248.393H535.756C535.916 248.384 536.074 248.352 536.225 248.298L536.346 248.239C536.464 248.194 536.574 248.13 536.671 248.049H536.875L536.996 247.907L537.068 247.812L540.523 242.65L545.784 248.002C545.871 248.095 545.977 248.169 546.095 248.218C546.214 248.267 546.342 248.29 546.47 248.286H551.286C551.447 248.282 551.606 248.25 551.755 248.191H551.815C551.969 248.132 552.111 248.048 552.237 247.943L552.357 247.836L552.478 247.694C552.51 247.645 552.539 247.594 552.562 247.54ZM485.686 219.205C483.653 226.149 481.015 232.908 477.8 239.405H481.797C484.899 232.888 487.451 226.132 489.43 219.205H485.686ZM500.686 214.504L501.999 210.218H517.878L516.566 214.504H500.686ZM494.294 239.82H489.815L489.791 239.761C492.879 235.208 495.288 230.244 496.942 225.019H500.927C499.33 230.197 497.103 235.167 494.294 239.82ZM496.304 223.148L497.628 218.79H517.011L515.675 223.148H508.295L502.781 241.264H495.63L496.954 236.942H499.699L503.901 223.148H496.304ZM495.606 217.819L494.258 222.236L495.835 223.799L494.233 229.056L492.656 227.529L488.467 241.288H484L491.103 217.819H485.084L486.408 213.486H492.367L493.571 209.732H498.158L496.954 213.486H499.711L498.387 217.819H495.606ZM506.874 239.974C508.361 235.176 509.06 230.175 508.945 225.161H513.243C513.141 230.184 512.331 235.169 510.835 239.974H506.874ZM524.933 209.898H529.808L529.953 217.464H525.065L524.933 209.898ZM518.203 224.474L519.611 219.832L527.605 219.821L523.211 234.243L526.654 233.059L525.077 238.257L516.445 241.288L521.562 224.474H518.203ZM536.514 232.348L530.555 241.264H525.679L531.698 232.348H536.514ZM530.711 229.21L536.261 211.023H553.826L548.288 229.21H530.711ZM541.053 241.229L540.523 232.313H545.327L545.868 241.229H541.053Z" fill="#8F8576"/>
<path d="M684.695 220.14L680.657 233.62H669.366L673.389 220.14H684.695Z" fill="#8F8576"/>
<path fill-rule="evenodd" clip-rule="evenodd" d="M732.5 222.643C732.5 222.671 732.498 222.698 732.494 222.726C732.494 222.757 732.19 223.35 732.19 223.35C732.182 223.395 732.182 223.442 732.19 223.487C732.182 223.517 732.182 223.548 732.19 223.578C732.171 223.671 732.146 223.763 732.113 223.852C732.11 223.864 732.108 223.876 732.107 223.887C732.107 223.901 732.109 223.915 732.113 223.928C732.105 223.979 732.105 224.03 732.113 224.08L731.961 224.339V224.43L731.748 224.704L731.626 224.795L731.352 225.008H731.199C731.098 225.066 730.991 225.112 730.879 225.145H730.742C730.57 225.161 730.396 225.161 730.224 225.145H728.243C728.25 225.242 728.25 225.338 728.243 225.434C728.249 225.468 728.25 225.503 728.247 225.537C728.246 225.549 728.245 225.56 728.243 225.571V225.708C728.251 225.779 728.251 225.85 728.243 225.921V226.104L722.072 246.735C722.041 246.835 722 246.932 721.95 247.024C721.927 247.077 721.902 247.128 721.874 247.179C721.846 247.23 721.815 247.28 721.782 247.328L721.661 247.481L721.584 247.587C721.401 247.783 721.191 247.952 720.96 248.089C720.54 248.342 720.063 248.484 719.573 248.5H698.058C697.541 248.502 697.041 248.312 696.656 247.967L695.651 247.1L695.559 247.268L695.437 247.42L695.361 247.526C695.184 247.729 694.973 247.899 694.736 248.028C694.318 248.285 693.84 248.426 693.35 248.439H671.88C671.349 248.436 670.839 248.235 670.448 247.876L661.33 240.018C661.28 239.982 661.231 239.944 661.184 239.904C660.886 239.646 660.672 239.306 660.569 238.927C660.466 238.547 660.478 238.146 660.605 237.774L667.37 215.18C667.548 214.54 667.969 213.994 668.544 213.658C668.963 213.408 669.441 213.272 669.93 213.263H691.232C691.795 213.251 692.342 213.458 692.755 213.841L693.807 214.738C694.009 214.319 694.326 213.966 694.721 213.719C695.13 213.454 695.605 213.311 696.093 213.308H709.669C709.936 213.306 710.199 213.375 710.431 213.506L710.08 211.041C709.987 210.514 710.096 209.971 710.385 209.52C710.573 209.204 710.841 208.944 711.162 208.765C711.483 208.586 711.846 208.494 712.214 208.5H715.017C715.487 208.494 715.946 208.638 716.328 208.911C716.691 208.636 717.136 208.491 717.592 208.5H720.396C720.726 208.494 721.054 208.562 721.354 208.699C721.575 208.8 721.778 208.936 721.954 209.101L731.108 216.975L731.275 217.142L731.367 217.249C731.678 217.607 731.884 218.044 731.961 218.512L732.494 222.422C732.502 222.467 732.502 222.514 732.494 222.559C732.498 222.587 732.5 222.615 732.5 222.643ZM661.214 239.919L661.307 239.999C661.275 239.973 661.241 239.945 661.214 239.919ZM692.018 215.272C691.994 215.166 691.937 215.07 691.857 214.997C691.725 214.872 691.551 214.801 691.369 214.799H669.915C669.694 214.814 669.479 214.882 669.29 214.997C669.064 215.129 668.896 215.341 668.818 215.591L662.052 238.169C662.015 238.268 662.008 238.376 662.033 238.479C662.057 238.582 662.112 238.676 662.19 238.747C662.32 238.876 662.494 238.952 662.677 238.96H684.131C684.354 238.945 684.57 238.872 684.756 238.747C684.985 238.622 685.159 238.416 685.244 238.169L691.994 215.591C692.034 215.489 692.043 215.378 692.018 215.272ZM712.603 215.422C712.5 215.378 712.409 215.31 712.335 215.225C712.196 215.085 712.105 214.904 712.076 214.708L711.513 210.691C711.467 210.57 711.513 210.433 711.619 210.22C711.676 210.13 711.755 210.057 711.848 210.006C711.942 209.956 712.046 209.93 712.153 209.931H714.941C715.053 209.926 715.165 209.947 715.268 209.992C715.371 210.037 715.462 210.104 715.535 210.189C715.664 210.334 715.757 210.505 715.81 210.691L716.358 214.708C716.367 214.755 716.37 214.803 716.368 214.851C716.367 214.888 716.362 214.926 716.354 214.962C716.336 215.046 716.301 215.125 716.251 215.195C716.216 215.251 716.172 215.3 716.121 215.342C716.091 215.367 716.057 215.389 716.022 215.408C715.929 215.459 715.824 215.485 715.718 215.484H712.93C712.818 215.488 712.706 215.467 712.603 215.422ZM720.914 210.159C721.042 210.303 721.136 210.475 721.188 210.661L721.737 214.678C721.757 214.762 721.757 214.849 721.739 214.933C721.72 215.017 721.683 215.096 721.63 215.164C721.577 215.254 721.501 215.327 721.41 215.378C721.319 215.429 721.216 215.455 721.112 215.454H718.308C718.197 215.456 718.086 215.434 717.983 215.389C717.88 215.344 717.789 215.278 717.714 215.195C717.58 215.051 717.49 214.871 717.455 214.678L716.891 210.661C716.868 210.494 716.912 210.324 717.013 210.189C717.065 210.099 717.141 210.024 717.232 209.973C717.324 209.923 717.427 209.897 717.531 209.9H720.335C720.445 209.896 720.554 209.917 720.655 209.962C720.699 209.982 720.741 210.006 720.78 210.034C720.83 210.07 720.875 210.112 720.914 210.159ZM709.608 214.769L709.882 216.747V216.777C709.926 216.959 710.015 217.126 710.141 217.264C710.218 217.343 710.311 217.406 710.413 217.447C710.515 217.489 710.625 217.51 710.735 217.508H717.699L711.513 238.139C711.434 238.384 711.265 238.591 711.04 238.717C710.852 238.838 710.638 238.911 710.416 238.93H688.901C688.722 238.922 688.553 238.846 688.428 238.717C688.359 238.64 688.312 238.545 688.293 238.443C688.274 238.341 688.284 238.236 688.322 238.139L689.464 234.365C689.533 234.12 689.691 233.909 689.906 233.772C690.083 233.658 690.289 233.594 690.5 233.59H706.88L710.918 220.109H694.493C694.316 220.102 694.149 220.032 694.02 219.911C693.948 219.836 693.901 219.74 693.885 219.637C693.868 219.533 693.884 219.428 693.929 219.333L695.056 215.56C695.083 215.435 695.136 215.317 695.212 215.215C695.288 215.113 695.386 215.028 695.498 214.967C695.675 214.849 695.88 214.781 696.093 214.769H709.608Z" fill="#8F8576"/>
<path d="M898.027 211.909C898.027 211.96 898.027 212.024 898.013 212.062C897.948 212.563 897.948 213.063 897.987 213.576C898.013 213.704 898.04 213.832 898.145 213.935C898.315 214.127 898.577 214.089 898.682 213.858C898.735 213.743 898.735 213.627 898.709 213.512C898.577 213.024 898.551 212.511 898.538 212.011C898.538 211.986 898.538 211.947 898.538 211.909C898.682 211.896 898.814 211.883 898.932 211.883C899.024 211.87 899.102 211.857 899.168 211.819C899.365 211.716 899.365 211.498 899.155 211.396C899.076 211.357 898.971 211.344 898.879 211.344C898.551 211.357 898.223 211.357 897.895 211.357C897.777 211.357 897.659 211.37 897.541 211.383C897.476 211.396 897.397 211.396 897.344 211.434C897.253 211.472 897.2 211.537 897.2 211.626C897.213 211.716 897.253 211.767 897.344 211.806C897.397 211.844 897.462 211.857 897.528 211.857C897.685 211.87 897.856 211.896 898.027 211.909ZM901.634 212.499C901.634 212.511 901.647 212.524 901.647 212.524C901.7 212.871 901.752 213.204 901.791 213.537C901.805 213.653 901.818 213.756 901.896 213.845C902.067 214.063 902.329 214.038 902.447 213.807C902.5 213.691 902.513 213.576 902.487 213.448C902.408 213.063 902.369 212.678 902.29 212.306C902.237 212.075 902.172 211.857 902.106 211.652C902.067 211.524 901.975 211.434 901.818 211.421C901.66 211.396 901.542 211.472 901.477 211.588C901.398 211.691 901.332 211.793 901.28 211.909C901.188 212.114 901.109 212.319 901.004 212.511C900.991 212.563 900.978 212.601 900.952 212.64C900.939 212.614 900.926 212.601 900.926 212.601C900.755 212.281 900.598 211.96 900.427 211.652C900.401 211.626 900.388 211.601 900.375 211.575C900.296 211.46 900.204 211.396 900.06 211.396C899.929 211.408 899.824 211.485 899.758 211.601C899.732 211.652 899.732 211.691 899.719 211.742C899.666 212.152 899.601 212.563 899.548 212.973C899.522 213.204 899.509 213.435 899.509 213.666C899.496 213.717 899.509 213.781 899.535 213.832C899.561 213.935 899.64 213.999 899.745 214.012C899.876 214.025 899.968 213.986 900.007 213.884C900.047 213.807 900.06 213.743 900.073 213.679C900.125 213.448 900.165 213.23 900.204 213.012C900.23 212.883 900.243 212.781 900.283 212.64C900.309 212.691 900.335 212.729 900.362 212.768C900.48 212.922 900.598 213.076 900.742 213.204C900.886 213.307 901.004 213.294 901.122 213.178C901.149 213.153 901.162 213.14 901.188 213.114C901.306 212.935 901.45 212.755 901.568 212.576C901.595 212.55 901.608 212.524 901.634 212.499Z" fill="#8F8576"/>
<path d="M871.409 212.161C871.317 212.404 871.3 212.58 871.342 212.726C871.389 212.924 871.509 212.989 871.673 212.939C873.214 212.566 876.593 213.624 877.843 213.918C878.138 213.98 878.378 213.608 878.177 213.274C877.883 212.951 874.506 211.567 873.218 211.491C872.712 211.463 871.809 211.337 871.409 212.161Z" fill="#8F8576"/>
<path d="M884.614 207.68C884.778 207.772 884.87 207.861 884.915 207.96C884.982 208.089 884.947 208.179 884.833 208.225C883.815 208.711 882.46 210.803 881.912 211.525C881.78 211.691 881.474 211.594 881.428 211.321C881.437 211.013 882.639 208.742 883.309 208.123C883.573 207.882 884.008 207.408 884.614 207.68Z" fill="#8F8576"/>
<path d="M876.502 206.65C876.699 206.504 876.904 206.453 877.009 206.548C878.546 207.833 879.361 209.868 879.865 211.731C879.884 211.774 879.886 211.836 879.87 211.901C879.864 211.957 879.823 212.015 879.757 212.061C879.686 212.111 879.626 212.126 879.597 212.083C878.924 211.187 875.077 207.702 876.502 206.65Z" fill="#8F8576"/>
<path d="M843.961 228.928C844.329 228.66 844.73 228.436 845.153 228.263C845.597 228.139 846.069 228.16 846.5 228.322C846.93 228.484 847.294 228.778 847.538 229.161C847.756 229.542 847.842 229.983 847.781 230.416C847.721 230.849 847.519 231.252 847.204 231.563C846.961 231.815 846.684 232.034 846.382 232.215C845.034 233.067 843.675 233.871 842.315 234.722C842.037 234.935 841.742 235.126 841.433 235.293C840.963 235.523 840.425 235.584 839.914 235.467C839.402 235.35 838.948 235.062 838.631 234.652C838.394 234.362 838.193 234.045 838.035 233.708C836.747 231.061 835.411 228.426 834.171 225.733C833.599 224.567 833.134 223.227 832.681 221.932C832.485 221.556 832.446 221.121 832.574 220.717C832.702 220.314 832.985 219.976 833.364 219.774C833.743 219.572 834.188 219.522 834.604 219.636C835.019 219.749 835.373 220.017 835.59 220.382C836.257 221.248 836.848 222.169 837.355 223.133C838.643 225.465 839.871 227.797 841.111 230.059C841.183 230.184 841.263 230.304 841.35 230.42C842.283 230.036 843.161 229.535 843.961 228.928Z" fill="#8F8576"/>
<path d="M857.276 228.114C854.331 231.484 849.394 230.632 846.914 226.295C845.149 223.218 844.839 218.134 848.679 214.928C849.499 214.257 850.479 213.8 851.529 213.599C852.816 213.419 854.128 213.641 855.278 214.233C856.428 214.826 857.357 215.759 857.932 216.899C860.031 220.629 859.733 225.386 857.276 228.114ZM856.084 220.256C855.771 219.339 855.143 218.557 854.307 218.041C853.834 217.711 853.259 217.551 852.679 217.587C852.099 217.623 851.55 217.854 851.123 218.239C849.418 219.72 849.06 223.229 850.301 225.316C850.459 225.656 850.691 225.959 850.981 226.202C851.271 226.446 851.612 226.624 851.98 226.725C852.348 226.826 852.734 226.847 853.111 226.787C853.489 226.727 853.848 226.587 854.164 226.377C855.088 225.676 855.766 224.712 856.104 223.617C856.442 222.522 856.422 221.351 856.048 220.268L856.084 220.256Z" fill="#8F8576"/>
<path d="M869.295 221.725C868.994 221.789 868.682 221.792 868.379 221.736C868.076 221.68 867.788 221.566 867.531 221.399C867.306 221.273 867.112 221.1 866.964 220.892C866.815 220.685 866.716 220.448 866.673 220.198C866.629 219.948 866.643 219.692 866.713 219.448C866.783 219.204 866.908 218.979 867.078 218.787C867.374 218.403 867.794 218.128 868.27 218.006C869.513 217.653 870.793 217.438 872.086 217.365C872.37 217.333 872.657 217.356 872.932 217.434C873.206 217.512 873.462 217.643 873.684 217.819C873.907 217.995 874.091 218.212 874.226 218.459C874.36 218.705 874.444 218.975 874.47 219.254C874.843 220.621 874.884 222.054 874.59 223.439C873.517 227.916 869.82 229.455 865.67 228.021C864.506 227.638 863.484 226.923 862.737 225.969C861.741 224.82 861.034 223.458 860.674 221.993C860.383 220.689 860.415 219.335 860.767 218.045C861.12 216.756 861.783 215.567 862.701 214.578C863.573 213.504 864.704 212.659 865.992 212.118C866.807 211.68 867.76 211.555 868.663 211.769C868.868 211.824 869.055 211.932 869.202 212.082C869.35 212.231 869.455 212.417 869.505 212.619C869.554 212.821 869.548 213.033 869.486 213.232C869.424 213.431 869.309 213.61 869.152 213.751C868.855 214.014 868.531 214.249 868.186 214.45C867.126 215.11 866.204 215.961 865.468 216.957C864.985 217.601 864.653 218.341 864.494 219.125C864.336 219.908 864.355 220.716 864.55 221.492C864.82 222.55 865.42 223.499 866.267 224.209C868.89 226.54 872.3 224.29 871.704 221.107C870.834 221.317 870.07 221.539 869.295 221.725Z" fill="#8F8576"/>
<path d="M885.322 228.301C881.446 230.633 877.034 228.301 876.068 223.404C875.365 219.907 876.7 215.01 881.375 213.144C882.369 212.756 883.448 212.62 884.511 212.748C885.788 212.977 886.959 213.591 887.86 214.505C888.76 215.419 889.345 216.587 889.531 217.843C890.318 222.005 888.529 226.447 885.322 228.301ZM886.669 220.454C886.668 219.486 886.317 218.549 885.679 217.808C885.338 217.35 884.845 217.021 884.284 216.879C883.723 216.737 883.129 216.789 882.603 217.027C880.504 217.913 879.026 221.131 879.562 223.497C879.603 223.869 879.727 224.227 879.924 224.547C880.121 224.867 880.388 225.141 880.705 225.35C881.021 225.558 881.381 225.697 881.758 225.756C882.136 225.814 882.522 225.792 882.889 225.689C883.998 225.31 884.959 224.602 885.636 223.664C886.314 222.725 886.675 221.603 886.669 220.454Z" fill="#8F8576"/>
<path d="M893.45 229.28C893.391 229.707 893.162 230.093 892.812 230.355C892.462 230.616 892.02 230.731 891.584 230.673C891.147 230.616 890.752 230.392 890.485 230.05C890.217 229.707 890.1 229.275 890.159 228.849C890.217 228.422 890.447 228.036 890.797 227.774C891.147 227.513 891.588 227.398 892.025 227.456C892.461 227.513 892.857 227.737 893.124 228.079C893.391 228.421 893.508 228.853 893.45 229.28ZM892.412 213.553C892.639 213.214 892.972 212.956 893.361 212.817C893.75 212.679 894.174 212.667 894.571 212.783C894.974 212.882 895.33 213.113 895.58 213.437C895.829 213.762 895.957 214.161 895.942 214.567C895.889 215.218 895.79 215.865 895.644 216.502C895.25 218.659 894.869 220.816 894.451 222.949C894.261 223.801 894.01 224.617 893.736 225.479C893.641 225.749 893.481 225.993 893.271 226.191C893.14 226.339 892.973 226.453 892.786 226.522C892.598 226.591 892.395 226.613 892.197 226.585C891.998 226.557 891.81 226.481 891.65 226.363C891.489 226.245 891.362 226.089 891.28 225.911C891.138 225.59 891.061 225.246 891.053 224.896C891.053 223.451 891.053 221.993 891.148 220.536C891.311 218.456 891.629 216.391 892.102 214.357C892.158 214.084 892.263 213.824 892.412 213.588V213.553Z" fill="#8F8576"/>
<path fill-rule="evenodd" clip-rule="evenodd" d="M838.923 238.649C838.782 238.956 838.744 239.299 838.813 239.628C838.858 240.063 838.959 240.491 839.112 240.901C839.303 241.404 839.517 241.901 839.78 242.514C839.841 242.655 839.904 242.802 839.97 242.957C840.326 243.787 840.772 244.848 841.367 246.384C841.535 246.82 841.684 247.26 841.835 247.703C841.896 247.881 841.957 248.061 842.019 248.241C842.243 248.88 842.629 249.455 843.14 249.91C843.356 250.161 843.644 250.343 843.967 250.434C844.296 250.527 844.645 250.521 844.971 250.417C845.296 250.313 845.582 250.116 845.791 249.851C845.996 249.591 846.118 249.278 846.142 248.951C846.275 248.313 846.229 247.652 846.01 247.038C845.662 246.017 845.266 244.996 844.809 243.996L844.807 243.992C844.055 242.428 843.291 240.875 842.49 239.322L842.484 239.311C842.25 238.906 841.946 238.545 841.585 238.242C841.35 237.972 841.027 237.79 840.67 237.727C840.305 237.663 839.929 237.727 839.609 237.909C839.306 238.079 839.066 238.337 838.923 238.649Z" fill="#8F8576"/>
<path fill-rule="evenodd" clip-rule="evenodd" d="M850.406 234.799C849.227 234.5 847.996 234.457 846.798 234.671C845.871 234.761 844.959 234.97 844.325 235.384C844.003 235.595 843.742 235.866 843.597 236.21C843.452 236.556 843.433 236.952 843.553 237.393C843.771 238.201 844.054 238.986 844.336 239.769L844.381 239.896L844.383 239.899C845.232 242.173 846.089 244.44 846.955 246.699C847.056 247.055 847.198 247.398 847.38 247.722L847.383 247.728C847.623 248.13 847.931 248.49 848.293 248.793C848.475 248.959 848.699 249.074 848.942 249.125C849.188 249.177 849.443 249.162 849.68 249.082C849.918 249.001 850.128 248.859 850.288 248.67C850.446 248.483 850.549 248.259 850.587 248.021C850.743 247.372 850.693 246.693 850.443 246.073C850.365 245.865 850.304 245.652 850.239 245.427C850.218 245.353 850.196 245.277 850.173 245.199C852.154 244.442 854.261 243.424 855.002 241.056C855.292 240.238 855.317 239.352 855.071 238.519C854.826 237.686 854.323 236.947 853.63 236.405C852.688 235.646 851.588 235.098 850.406 234.799ZM847.138 237.703C847.177 237.692 847.217 237.682 847.256 237.672C848.546 237.474 849.865 237.738 850.971 238.416C851.459 238.747 851.658 239.116 851.693 239.47C851.728 239.835 851.592 240.23 851.32 240.611C850.805 241.329 849.865 241.903 849.016 242.01C848.397 240.617 847.768 239.166 847.138 237.703Z" fill="#8F8576"/>
<path d="M858.265 232.247C859.668 231.613 861.407 231.504 862.768 231.95C863.111 232.047 863.408 232.258 863.609 232.547C863.809 232.834 863.901 233.179 863.87 233.524C863.868 233.749 863.812 233.969 863.706 234.168C863.598 234.371 863.442 234.545 863.251 234.676C863.06 234.807 862.839 234.892 862.608 234.922C862.376 234.952 862.141 234.927 861.921 234.849L861.904 234.844L861.888 234.835C861.776 234.778 861.657 234.735 861.533 234.706L861.525 234.705C860.568 234.456 859.665 234.868 859.335 235.374C859.178 235.615 859.159 235.859 859.29 236.081C859.43 236.318 859.774 236.584 860.47 236.774C860.662 236.825 860.858 236.875 861.057 236.925C861.608 237.065 862.18 237.21 862.733 237.41L862.735 237.411C865.288 238.361 866.239 240.327 865.913 242.177C865.591 244.007 864.029 245.671 861.679 246.064C860.824 246.249 859.934 246.213 859.098 245.959C858.259 245.705 857.503 245.24 856.905 244.611L856.89 244.595C856.701 244.358 856.574 244.08 856.517 243.784C856.466 243.518 856.493 243.242 856.596 242.99C856.698 242.74 856.872 242.523 857.095 242.365C857.331 242.186 857.616 242.079 857.914 242.057C858.211 242.034 858.508 242.097 858.768 242.238C859.029 242.361 859.271 242.518 859.488 242.705L859.492 242.708C859.877 243.052 860.342 243.141 860.789 243.058C861.241 242.974 861.667 242.712 861.941 242.365C862.213 242.02 862.322 241.609 862.192 241.211C862.062 240.81 861.67 240.361 860.808 239.985C860.583 239.891 860.35 239.816 860.107 239.743C860.041 239.723 859.975 239.703 859.907 239.683C859.728 239.63 859.543 239.575 859.362 239.514C859.237 239.473 859.113 239.433 858.99 239.394C858.655 239.288 858.329 239.184 858.014 239.044C857.33 238.816 856.739 238.379 856.329 237.797C855.917 237.212 855.71 236.513 855.738 235.804C855.74 234.075 856.853 232.885 858.265 232.247Z" fill="#8F8576"/>
<path d="M876.062 232.063C875.79 231.933 875.489 231.872 875.186 231.884C874.884 231.896 874.589 231.981 874.329 232.133C874.07 232.283 873.853 232.494 873.698 232.746C873.556 232.958 873.457 233.196 873.408 233.445C873.359 233.694 873.36 233.95 873.412 234.199C873.462 234.518 873.518 234.829 873.574 235.135C873.666 235.642 873.755 236.137 873.814 236.643L873.816 236.655C873.951 237.448 874.021 238.249 874.027 239.052L874.028 239.063C874.074 239.931 873.772 240.781 873.186 241.434L873.177 241.445C872.986 241.684 872.732 241.866 872.441 241.972C872.151 242.077 871.836 242.101 871.532 242.042C871.229 241.982 870.948 241.841 870.722 241.634C870.495 241.428 870.332 241.163 870.25 240.87C870.076 240.255 869.976 239.621 869.95 238.983L870.247 234.357C870.252 234.297 870.257 234.235 870.262 234.172C870.273 234.031 870.285 233.888 870.29 233.755C870.297 233.558 870.291 233.356 870.244 233.165C870.196 232.97 870.105 232.784 869.943 232.626C869.783 232.469 869.567 232.353 869.295 232.275C868.804 232.136 868.388 232.14 868.042 232.284C867.695 232.427 867.458 232.694 867.29 233.002C867.123 233.308 867.016 233.67 866.935 234.032C866.875 234.301 866.827 234.583 866.781 234.852C866.765 234.945 866.75 235.036 866.734 235.124L866.733 235.126C866.488 236.6 866.415 238.096 866.516 239.586C866.534 240.391 866.706 241.186 867.022 241.93C867.379 242.889 868.024 243.721 868.874 244.314C869.725 244.909 870.742 245.236 871.788 245.254C872.834 245.271 873.861 244.977 874.732 244.411C875.603 243.846 876.277 243.036 876.666 242.088C877.211 240.88 877.467 239.567 877.414 238.248C877.382 237.285 877.329 236.315 877.275 235.35C877.249 234.876 877.223 234.404 877.2 233.934C877.188 233.463 877.029 233.007 876.744 232.627C876.568 232.387 876.334 232.193 876.062 232.063Z" fill="#8F8576"/>
<path d="M885.696 239.317C885.668 239.352 885.639 239.387 885.609 239.424C885.387 238.175 885.182 236.927 884.977 235.677C884.903 235.228 884.829 234.777 884.754 234.328L884.746 234.278L884.719 234.235C884.668 234.153 884.662 234.073 884.662 233.903V233.883L884.659 233.864C884.604 233.512 884.441 233.184 884.192 232.924C883.944 232.665 883.622 232.484 883.268 232.406C882.914 232.32 882.542 232.339 882.2 232.46C881.858 232.58 881.559 232.796 881.342 233.081C881.162 233.3 881.014 233.543 880.903 233.802C880.652 234.36 880.398 234.92 880.144 235.481L880.139 235.491C879.504 236.892 878.865 238.303 878.244 239.725L878.242 239.729C877.861 240.651 877.546 241.623 877.233 242.591C877.17 242.784 877.108 242.978 877.045 243.17C876.931 243.476 876.882 243.801 876.899 244.125C876.878 244.416 876.949 244.705 877.103 244.955C877.259 245.21 877.494 245.411 877.773 245.529C878.068 245.656 878.399 245.683 878.712 245.605C879.025 245.528 879.303 245.352 879.502 245.104C879.756 244.798 879.974 244.465 880.152 244.112C880.678 243.06 881.181 241.996 881.681 240.936C881.875 240.526 882.063 240.159 882.277 239.759C882.291 239.808 882.306 239.856 882.322 239.904C882.546 240.87 882.925 241.795 883.444 242.645C883.542 242.825 883.679 242.982 883.845 243.106C884.013 243.232 884.207 243.32 884.413 243.364C884.619 243.409 884.833 243.409 885.039 243.365C885.246 243.321 885.44 243.233 885.608 243.108L885.941 242.864L888.523 240.738L888.37 241.689C888.161 242.997 887.953 244.294 887.732 245.591C887.587 246.166 887.587 246.767 887.732 247.342C887.795 247.665 887.955 247.963 888.192 248.197C888.431 248.433 888.737 248.594 889.07 248.658C889.403 248.722 889.748 248.686 890.061 248.556C890.368 248.428 890.63 248.213 890.813 247.94C891.239 247.423 891.504 246.798 891.577 246.138C891.686 245.206 891.81 244.262 891.934 243.318C892.077 242.23 892.219 241.142 892.34 240.075L892.34 240.072C892.456 238.904 892.512 237.731 892.509 236.558C892.534 236.187 892.44 235.818 892.238 235.502C892.036 235.185 891.737 234.939 891.384 234.798C891.016 234.635 890.605 234.591 890.21 234.674C889.818 234.756 889.463 234.958 889.196 235.251C888.72 235.681 888.273 236.142 887.859 236.63L887.856 236.634C887.403 237.185 886.954 237.747 886.507 238.306C886.236 238.645 885.965 238.984 885.696 239.317Z" fill="#8F8576"/>
<path d="M1025.36 206.915L1053.56 235.005V250.085H1040.4V240.426L1019.92 220.024H1015.66V250.085H1002.5V206.915H1025.36Z" fill="#8F8576"/>
</svg>
